<svg width="26" height="26" viewBox="0 0 26 26" fill="none" xmlns="http://www.w3.org/2000/svg">
<mask id="mask0_27_3142" style="mask-type:alpha" maskUnits="userSpaceOnUse" x="0" y="0" width="26" height="26">
<rect width="26" height="26" fill="#D9D9D9"/>
</mask>
<g mask="url(#mask0_27_3142)">
<path d="M4.6664 22.1405C4.11914 22.1405 3.65592 21.9509 3.27676 21.5717C2.89759 21.1925 2.70801 20.7293 2.70801 20.1821V15.9113H10.2913V17.8071H15.708V15.9113H23.2913V20.1821C23.2913 20.7293 23.1018 21.1925 22.7226 21.5717C22.3434 21.9509 21.8802 22.1405 21.3329 22.1405H4.6664ZM11.9163 16.1821V14.0155H14.083V16.1821H11.9163ZM2.70801 14.2863V8.93219C2.70801 8.38493 2.89759 7.92171 3.27676 7.54255C3.65592 7.16338 4.11914 6.9738 4.6664 6.9738H9.20801V5.14052C9.20801 4.59326 9.39759 4.13005 9.77676 3.75088C10.1559 3.37171 10.6191 3.18213 11.1664 3.18213H14.8329C15.3802 3.18213 15.8434 3.37171 16.2226 3.75088C16.6018 4.13005 16.7913 4.59326 16.7913 5.14052V6.9738H21.3329C21.8802 6.9738 22.3434 7.16338 22.7226 7.54255C23.1018 7.92171 23.2913 8.38493 23.2913 8.93219V14.2863H15.708V12.3905H10.2913V14.2863H2.70801ZM10.833 6.9738H15.1663V5.14052C15.1663 5.05711 15.1316 4.98073 15.0621 4.9114C14.9927 4.84189 14.9164 4.80713 14.8329 4.80713H11.1664C11.083 4.80713 11.0066 4.84189 10.9373 4.9114C10.8678 4.98073 10.833 5.05711 10.833 5.14052V6.9738Z" fill="#4F46E5"/>
</g>
</svg>
