<svg width="26" height="26" viewBox="0 0 26 26" fill="none" xmlns="http://www.w3.org/2000/svg">
<mask id="mask0_23_2993" style="mask-type:alpha" maskUnits="userSpaceOnUse" x="0" y="0" width="26" height="26">
<rect width="26" height="26" fill="#D9D9D9"/>
</mask>
<g mask="url(#mask0_23_2993)">
<path d="M12.9997 13.9584L16.501 17.46C16.6316 17.5905 16.7895 17.6575 16.975 17.6609C17.1604 17.6644 17.3219 17.5974 17.4595 17.46C17.5969 17.3224 17.6656 17.1626 17.6656 16.9806C17.6656 16.7988 17.5969 16.6391 17.4595 16.5015L13.9579 13.0002L17.4595 9.49883C17.59 9.36829 17.657 9.2103 17.6604 9.02487C17.6639 8.83944 17.5969 8.67793 17.4595 8.54035C17.3219 8.40295 17.1621 8.33425 16.9801 8.33425C16.7983 8.33425 16.6386 8.40295 16.501 8.54035L12.9997 12.042L9.49834 8.54035C9.3678 8.40981 9.20981 8.34282 9.02438 8.33939C8.83895 8.33596 8.67745 8.40295 8.53986 8.54035C8.40246 8.67793 8.33376 8.83773 8.33376 9.01973C8.33376 9.20155 8.40246 9.36125 8.53986 9.49883L12.0415 13.0002L8.53986 16.5015C8.40932 16.632 8.34233 16.79 8.3389 16.9755C8.33547 17.1609 8.40246 17.3224 8.53986 17.46C8.67745 17.5974 8.83724 17.6661 9.01924 17.6661C9.20106 17.6661 9.36076 17.5974 9.49834 17.46L12.9997 13.9584ZM13.0016 23.2918C11.5855 23.2918 10.2523 23.0217 9.00217 22.4815C7.75201 21.9413 6.66064 21.2051 5.72807 20.2731C4.79568 19.3409 4.0592 18.25 3.51861 17.0004C2.97821 15.7507 2.70801 14.418 2.70801 13.0021C2.70801 11.5786 2.97812 10.2406 3.51834 8.98804C4.05856 7.73552 4.79469 6.64605 5.72672 5.71962C6.65892 4.79319 7.74984 4.05968 8.99947 3.5191C10.2491 2.9787 11.5819 2.7085 12.9978 2.7085C14.4213 2.7085 15.7593 2.97861 17.0118 3.51883C18.2643 4.05905 19.3538 4.7922 20.2802 5.71827C21.2066 6.64434 21.9402 7.73336 22.4807 8.98533C23.0211 10.2373 23.2913 11.5749 23.2913 12.9983C23.2913 14.4144 23.0212 15.7475 22.481 16.9977C21.9408 18.2478 21.2076 19.3392 20.2816 20.2718C19.3555 21.2042 18.2665 21.9406 17.0145 22.4812C15.7625 23.0216 14.4249 23.2918 13.0016 23.2918Z" fill="#64748B"/>
</g>
</svg>
