<svg width="26" height="26" viewBox="0 0 26 26" fill="none" xmlns="http://www.w3.org/2000/svg">
<mask id="mask0_23_2985" style="mask-type:alpha" maskUnits="userSpaceOnUse" x="0" y="0" width="26" height="26">
<rect width="26" height="26" fill="#D9D9D9"/>
</mask>
<g mask="url(#mask0_23_2985)">
<path d="M11.4218 15.578L8.75111 12.9002C8.61588 12.7697 8.45184 12.7027 8.25901 12.6993C8.06617 12.6957 7.89736 12.7663 7.75255 12.9113C7.61497 13.0487 7.54618 13.2133 7.54618 13.4051C7.54618 13.5966 7.61497 13.7612 7.75255 13.8988L10.8281 16.9855C10.9971 17.1592 11.195 17.246 11.4218 17.246C11.6488 17.246 11.8467 17.1592 12.0157 16.9855L18.2148 10.7931C18.3528 10.6505 18.4236 10.4829 18.4272 10.2902C18.4306 10.0974 18.3598 9.92846 18.2148 9.78347C18.07 9.64607 17.9 9.57918 17.7046 9.58279C17.5092 9.58658 17.3428 9.65718 17.2052 9.79458L11.4218 15.578ZM13.0016 23.2918C11.5855 23.2918 10.2523 23.0217 9.00217 22.4815C7.75201 21.9413 6.66064 21.2051 5.72807 20.2731C4.79568 19.3409 4.0592 18.25 3.51861 17.0004C2.97821 15.7507 2.70801 14.418 2.70801 13.0021C2.70801 11.5786 2.97812 10.2406 3.51834 8.98804C4.05856 7.73552 4.79469 6.64605 5.72672 5.71962C6.65892 4.79319 7.74984 4.05968 8.99947 3.5191C10.2491 2.9787 11.5819 2.7085 12.9978 2.7085C14.4213 2.7085 15.7593 2.97861 17.0118 3.51883C18.2643 4.05905 19.3538 4.7922 20.2802 5.71827C21.2066 6.64434 21.9402 7.73336 22.4807 8.98533C23.0211 10.2373 23.2913 11.5749 23.2913 12.9983C23.2913 14.4144 23.0212 15.7475 22.481 16.9977C21.9408 18.2478 21.2076 19.3392 20.2816 20.2718C19.3555 21.2042 18.2665 21.9406 17.0145 22.4812C15.7625 23.0216 14.4249 23.2918 13.0016 23.2918Z" fill="#64748B"/>
</g>
</svg>
