<svg width="20" height="16" viewBox="0 0 20 16" fill="none" xmlns="http://www.w3.org/2000/svg">
<path d="M14.4996 5.74979C14.0831 5.74979 13.7289 5.60399 13.4372 5.3124C13.1456 5.0208 12.9998 4.66664 12.9998 4.24992C12.9998 3.83319 13.1456 3.47904 13.4372 3.18744C13.7289 2.89584 14.0831 2.75004 14.4996 2.75004C14.9164 2.75004 15.2705 2.89584 15.5621 3.18744C15.8539 3.47904 15.9998 3.83319 15.9998 4.24992C15.9998 4.66664 15.8539 5.0208 15.5621 5.3124C15.2705 5.60399 14.9164 5.74979 14.4996 5.74979ZM5.49986 5.74979C5.08313 5.74979 4.72897 5.60399 4.43738 5.3124C4.1456 5.0208 3.99971 4.66664 3.99971 4.24992C3.99971 3.83319 4.1456 3.47904 4.43738 3.18744C4.72897 2.89584 5.08313 2.75004 5.49986 2.75004C5.9164 2.75004 6.27056 2.89584 6.56234 3.18744C6.85393 3.47904 6.99973 3.83319 6.99973 4.24992C6.99973 4.66664 6.85393 5.0208 6.56234 5.3124C6.27056 5.60399 5.9164 5.74979 5.49986 5.74979ZM9.99975 8.49983C9.58303 8.49983 9.22887 8.35404 8.93727 8.06244C8.64568 7.77066 8.49988 7.4165 8.49988 6.99996C8.49988 6.58324 8.64568 6.22908 8.93727 5.93748C9.22887 5.6457 9.58303 5.49981 9.99975 5.49981C10.4165 5.49981 10.7706 5.6457 11.0622 5.93748C11.3538 6.22908 11.4996 6.58324 11.4996 6.99996C11.4996 7.4165 11.3538 7.77066 11.0622 8.06244C10.7706 8.35404 10.4165 8.49983 9.99975 8.49983ZM9.99975 3.00002C9.58303 3.00002 9.22887 2.85413 8.93727 2.56235C8.64568 2.27076 8.49988 1.9166 8.49988 1.49988C8.49988 1.08315 8.64568 0.728994 8.93727 0.437397C9.22887 0.145799 9.58303 0 9.99975 0C10.4165 0 10.7706 0.145799 11.0622 0.437397C11.3538 0.728994 11.4996 1.08315 11.4996 1.49988C11.4996 1.9166 11.3538 2.27076 11.0622 2.56235C10.7706 2.85413 10.4165 3.00002 9.99975 3.00002ZM10.0003 15.9998C9.66663 15.9998 9.32863 15.9762 8.98629 15.9291C8.64396 15.8818 8.31508 15.813 7.99965 15.7227V12.152C7.99965 11.5616 8.19555 11.0553 8.58736 10.6332C8.97898 10.2111 9.44978 9.99998 9.99975 9.99998C10.5497 9.99998 11.0205 10.2111 11.4122 10.6332C11.804 11.0553 11.9999 11.5616 11.9999 12.152V15.7227C11.6844 15.813 11.3557 15.8818 11.0138 15.9291C10.6718 15.9762 10.334 15.9998 10.0003 15.9998ZM6.49977 15.1956C6.16791 15.0631 5.84851 14.914 5.54157 14.7482C5.23462 14.5827 4.93815 14.3993 4.65215 14.1982C4.18108 13.8632 3.80877 13.4291 3.53523 12.8957C3.26169 12.3624 3.12492 11.7957 3.12492 11.1957C3.12492 10.7669 3.0787 10.367 2.98625 9.99592C2.89381 9.62488 2.7314 9.26936 2.49902 8.92938C2.33291 8.70838 2.02091 8.37661 1.56302 7.93406C1.10513 7.49152 0.68471 7.07823 0.301751 6.69419C0.118487 6.51056 0.0268555 6.27837 0.0268555 5.99761C0.0268555 5.71684 0.11921 5.48564 0.303918 5.304C0.487363 5.11929 0.720731 5.02694 1.00402 5.02694C1.28731 5.02694 1.52059 5.11857 1.70386 5.30183L5.52721 8.92504C5.86034 9.22495 6.10571 9.58046 6.26334 9.99159C6.42096 10.4027 6.49977 10.8221 6.49977 11.2499V15.1956ZM13.4997 15.1956V11.2542C13.4997 10.8218 13.5831 10.3977 13.7497 9.98183C13.9164 9.56602 14.1573 9.21511 14.4726 8.92911L18.3024 5.30211C18.5027 5.11866 18.7404 5.02694 19.0158 5.02694C19.2911 5.02694 19.5212 5.11929 19.7059 5.304C19.8906 5.48871 19.9829 5.72154 19.9829 6.00248C19.9829 6.28342 19.8915 6.51472 19.7086 6.69636C19.3264 7.07642 18.9046 7.48475 18.4433 7.92133C17.9819 8.3581 17.6674 8.69402 17.4997 8.92911C17.2664 9.26169 17.1039 9.61513 17.0122 9.98942C16.9204 10.3637 16.8746 10.7671 16.8746 11.1995C16.8746 11.7984 16.7378 12.3669 16.4643 12.9049C16.1907 13.4432 15.8123 13.8817 15.3289 14.2204C15.0623 14.4067 14.7743 14.5827 14.465 14.7482C14.1559 14.914 13.8341 15.0631 13.4997 15.1956Z" fill="#4F46E5"/>
</svg>
