<svg width="18" height="22" viewBox="0 0 18 22" fill="none" xmlns="http://www.w3.org/2000/svg">
<path d="M5.75 17.2293H12.25C12.4802 17.2293 12.6731 17.1514 12.8288 16.9956C12.9846 16.8398 13.0625 16.6468 13.0625 16.4166C13.0625 16.1862 12.9846 15.9932 12.8288 15.8378C12.6731 15.6821 12.4802 15.6043 12.25 15.6043H5.75C5.51979 15.6043 5.32687 15.6822 5.17123 15.8381C5.01541 15.9939 4.9375 16.1869 4.9375 16.4171C4.9375 16.6475 5.01541 16.8404 5.17123 16.9959C5.32687 17.1515 5.51979 17.2293 5.75 17.2293ZM5.75 12.896H12.25C12.4802 12.896 12.6731 12.8181 12.8288 12.6623C12.9846 12.5064 13.0625 12.3134 13.0625 12.0832C13.0625 11.8528 12.9846 11.6599 12.8288 11.5045C12.6731 11.3488 12.4802 11.271 12.25 11.271H5.75C5.51979 11.271 5.32687 11.3489 5.17123 11.5047C5.01541 11.6605 4.9375 11.8536 4.9375 12.0838C4.9375 12.3142 5.01541 12.5071 5.17123 12.6625C5.32687 12.8182 5.51979 12.896 5.75 12.896ZM2.8334 21.2918C2.28613 21.2918 1.82292 21.1022 1.44375 20.7231C1.06458 20.3439 0.875 19.8807 0.875 19.3334V2.66689C0.875 2.11963 1.06458 1.65641 1.44375 1.27725C1.82292 0.898079 2.28613 0.708496 2.8334 0.708496H10.6272C10.8913 0.708496 11.1431 0.759232 11.3825 0.860704C11.6219 0.961996 11.8306 1.10157 12.0084 1.27941L16.5541 5.82508C16.7319 6.00293 16.8715 6.21156 16.9728 6.45098C17.0743 6.69039 17.125 6.94218 17.125 7.20633V19.3334C17.125 19.8807 16.9354 20.3439 16.5563 20.7231C16.1771 21.1022 15.7139 21.2918 15.1666 21.2918H2.8334ZM10.625 6.2335C10.625 6.50975 10.7184 6.74131 10.9053 6.92818C11.0922 7.11506 11.3238 7.2085 11.6 7.2085H15.5L10.625 2.3335V6.2335Z" fill="#64748B"/>
</svg>
