<svg width="26" height="26" viewBox="0 0 26 26" fill="none" xmlns="http://www.w3.org/2000/svg">
<mask id="mask0_27_3128" style="mask-type:alpha" maskUnits="userSpaceOnUse" x="0" y="0" width="26" height="26">
<rect width="26" height="26" fill="#D9D9D9"/>
</mask>
<g mask="url(#mask0_27_3128)">
<path d="M12.9984 17.0518C12.4595 17.0518 11.9987 16.8598 11.6161 16.476C11.2333 16.0921 11.0419 15.6307 11.0419 15.0918C11.0419 14.5526 11.2339 14.0917 11.6177 13.7092C12.0016 13.3266 12.4631 13.1353 13.0022 13.1353C13.5412 13.1353 14.002 13.3272 14.3846 13.711C14.7673 14.0949 14.9587 14.5564 14.9587 15.0955C14.9587 15.6345 14.7668 16.0953 14.3829 16.4779C13.9991 16.8605 13.5376 17.0518 12.9984 17.0518ZM8.53158 7.98942H17.4691L18.8503 5.20607C19.017 4.8798 19.0069 4.56248 18.82 4.25409C18.6333 3.9457 18.3531 3.7915 17.9793 3.7915H8.02133C7.64758 3.7915 7.36735 3.9457 7.18066 4.25409C6.99378 4.56248 6.98367 4.8798 7.15033 5.20607L8.53158 7.98942ZM9.22545 22.2082H16.7752C18.2845 22.2082 19.5674 21.6821 20.624 20.63C21.6804 19.5779 22.2087 18.2917 22.2087 16.7712C22.2087 16.1364 22.1 15.5182 21.8826 14.9168C21.6652 14.3152 21.3537 13.77 20.9482 13.2812L17.8918 9.61442H8.10881L5.05245 13.2812C4.64692 13.77 4.33546 14.3152 4.11808 14.9168C3.90069 15.5182 3.79199 16.1364 3.79199 16.7712C3.79199 18.2917 4.31804 19.5779 5.37014 20.63C6.42224 21.6821 7.70734 22.2082 9.22545 22.2082Z" fill="#4F46E5"/>
</g>
</svg>
