<svg width="26" height="26" viewBox="0 0 26 26" fill="none" xmlns="http://www.w3.org/2000/svg">
<mask id="mask0_23_2977" style="mask-type:alpha" maskUnits="userSpaceOnUse" x="0" y="0" width="26" height="26">
<rect width="26" height="26" fill="#D9D9D9"/>
</mask>
<g mask="url(#mask0_23_2977)">
<path d="M8.53445 13.6404H17.4649C17.6579 13.6404 17.8196 13.5749 17.95 13.4438C18.0803 13.3127 18.1455 13.1502 18.1455 12.9563C18.1455 12.7624 18.0803 12.601 17.95 12.4723C17.8196 12.3438 17.6579 12.2795 17.4649 12.2795H8.53445C8.34143 12.2795 8.17974 12.3449 8.04938 12.4758C7.91902 12.6069 7.85384 12.7694 7.85384 12.9633C7.85384 13.1572 7.91902 13.3186 8.04938 13.4473C8.17974 13.576 8.34143 13.6404 8.53445 13.6404ZM13.0062 23.2918C11.5814 23.2918 10.2454 23.0217 8.99811 22.4815C7.75065 21.9413 6.66064 21.2051 5.72807 20.2731C4.79568 19.3409 4.0592 18.251 3.51861 17.0034C2.97821 15.7555 2.70801 14.4187 2.70801 12.9929C2.70801 11.5717 2.97812 10.2359 3.51834 8.98533C4.05856 7.73462 4.79469 6.64605 5.72672 5.71962C6.65892 4.79319 7.74885 4.05968 8.99649 3.5191C10.2443 2.9787 11.5811 2.7085 13.007 2.7085C14.4281 2.7085 15.764 2.97861 17.0145 3.51883C18.2652 4.05905 19.3538 4.7922 20.2802 5.71827C21.2066 6.64434 21.9402 7.73336 22.4807 8.98533C23.0211 10.2373 23.2913 11.5734 23.2913 12.9937C23.2913 14.4184 23.0212 15.7544 22.481 17.0017C21.9408 18.2492 21.2076 19.338 20.2816 20.2682C19.3555 21.1987 18.2665 21.9351 17.0145 22.4777C15.7625 23.0205 14.4264 23.2918 13.0062 23.2918Z" fill="#64748B"/>
</g>
</svg>
