<svg width="26" height="26" viewBox="0 0 26 26" fill="none" xmlns="http://www.w3.org/2000/svg">
<mask id="mask0_16_4887" style="mask-type:alpha" maskUnits="userSpaceOnUse" x="0" y="0" width="26" height="26">
<rect width="26" height="26" fill="#D9D9D9"/>
</mask>
<g mask="url(#mask0_16_4887)">
<path d="M1.94775 18.5082C1.94775 17.9499 2.09184 17.4517 2.38 17.0135C2.66817 16.5753 3.05302 16.2344 3.53457 15.9908C4.56409 15.4872 5.59931 15.0989 6.64021 14.8259C7.6813 14.5531 8.82539 14.4167 10.0725 14.4167C11.3198 14.4167 12.4639 14.5531 13.5048 14.8259C14.5458 15.0989 15.5811 15.4872 16.6107 15.9908C17.0922 16.2344 17.4771 16.5753 17.7652 17.0135C18.0534 17.4517 18.1975 17.9499 18.1975 18.5082V19.2709C18.1975 19.7069 18.0374 20.0902 17.7173 20.4208C17.3972 20.7514 17.0086 20.9167 16.5516 20.9167H3.59334C3.13653 20.9167 2.74807 20.7566 2.42794 20.4365C2.10782 20.1162 1.94775 19.7277 1.94775 19.2709V18.5082ZM19.9454 20.9167C20.0816 20.6681 20.1854 20.4035 20.2569 20.1229C20.3284 19.8423 20.3642 19.5583 20.3642 19.2709V18.3749C20.3642 17.6639 20.1901 16.9862 19.842 16.3418C19.4937 15.6976 18.9997 15.1448 18.36 14.6835C19.0864 14.7918 19.776 14.9595 20.4289 15.1864C21.0816 15.4136 21.7045 15.682 22.2976 15.9916C22.8574 16.2902 23.2896 16.6422 23.5944 17.0476C23.8992 17.4528 24.0515 17.8952 24.0515 18.3749V19.2709C24.0515 19.7277 23.8915 20.1162 23.5714 20.4365C23.2512 20.7566 22.8628 20.9167 22.406 20.9167H19.9454ZM10.0725 12.6666C9.02978 12.6666 8.1372 12.2954 7.39475 11.5529C6.65231 10.8103 6.28109 9.91763 6.28109 8.87492C6.28109 7.83221 6.65231 6.93963 7.39475 6.19719C8.1372 5.45456 9.02978 5.08325 10.0725 5.08325C11.1152 5.08325 12.0079 5.45456 12.7505 6.19719C13.4929 6.93963 13.8642 7.83221 13.8642 8.87492C13.8642 9.91763 13.4929 10.8103 12.7505 11.5529C12.0079 12.2954 11.1152 12.6666 10.0725 12.6666ZM19.4265 8.87492C19.4265 9.91763 19.0553 10.8103 18.3129 11.5529C17.5704 12.2954 16.6778 12.6666 15.6351 12.6666C15.5129 12.6666 15.3573 12.6527 15.1685 12.6249C14.9794 12.5971 14.8239 12.5666 14.7018 12.5333C15.129 12.0197 15.4574 11.4498 15.6869 10.8238C15.9162 10.1979 16.0308 9.54785 16.0308 8.87384C16.0308 8.19964 15.9138 7.55208 15.6798 6.93115C15.4458 6.3104 15.1198 5.73894 14.7018 5.21677C14.8573 5.16116 15.0128 5.12505 15.1685 5.10844C15.3239 5.09165 15.4795 5.08325 15.6351 5.08325C16.6778 5.08325 17.5704 5.45456 18.3129 6.19719C19.0553 6.93963 19.4265 7.83221 19.4265 8.87492Z" fill="#4F46E5"/>
</g>
</svg>
