<svg width="20" height="20" viewBox="0 0 20 20" fill="none" xmlns="http://www.w3.org/2000/svg">
<mask id="mask0_6059_12690" style="mask-type:alpha" maskUnits="userSpaceOnUse" x="2" y="2" width="16" height="16">
<rect x="2" y="2" width="16" height="16" fill="#D9D9D9"/>
</mask>
<g mask="url(#mask0_6059_12690)">
<path d="M3.66699 13.8588V13.3894C3.66699 13.0544 3.75505 12.75 3.93116 12.4761C4.10716 12.2021 4.34477 11.9903 4.64399 11.8408C5.23877 11.54 5.85755 11.3015 6.50033 11.1254C7.1431 10.9493 7.79866 10.8613 8.46699 10.8613C8.60544 10.8613 8.71483 10.9211 8.79516 11.0408C8.87549 11.1604 8.89433 11.2917 8.85166 11.4344C8.79777 11.6335 8.75844 11.8327 8.73366 12.0318C8.70888 12.231 8.69649 12.4335 8.69649 12.6394C8.69649 12.9061 8.72127 13.1649 8.77083 13.4158C8.82038 13.6667 8.88916 13.9152 8.97716 14.1613C9.04471 14.333 9.03105 14.4944 8.93616 14.6453C8.84127 14.7962 8.70794 14.8716 8.53616 14.8716H4.67983C4.3986 14.8716 4.15949 14.7731 3.96249 14.5761C3.76549 14.379 3.66699 14.1399 3.66699 13.8588ZM13.2055 13.6921C13.555 13.6921 13.8539 13.5679 14.1022 13.3196C14.3505 13.0713 14.4747 12.7723 14.4747 12.4228C14.4747 12.0732 14.3505 11.7743 14.1022 11.5261C13.8539 11.2778 13.555 11.1536 13.2055 11.1536C12.8559 11.1536 12.557 11.2778 12.3087 11.5261C12.0603 11.7743 11.9362 12.0732 11.9362 12.4228C11.9362 12.7723 12.0603 13.0713 12.3087 13.3196C12.557 13.5679 12.8559 13.6921 13.2055 13.6921ZM8.66699 9.7946C8.02344 9.7946 7.47366 9.5666 7.01766 9.1106C6.56166 8.65471 6.33366 8.10493 6.33366 7.46126C6.33366 6.81771 6.56166 6.26793 7.01766 5.81193C7.47366 5.35593 8.02344 5.12793 8.66699 5.12793C9.31055 5.12793 9.86033 5.35593 10.3163 5.81193C10.7723 6.26793 11.0003 6.81771 11.0003 7.46126C11.0003 8.10493 10.7723 8.65471 10.3163 9.1106C9.86033 9.5666 9.31055 9.7946 8.66699 9.7946ZM12.6695 14.9793L12.5888 14.4804C12.4298 14.4334 12.2802 14.3719 12.14 14.2959C11.9999 14.2198 11.8665 14.1245 11.74 14.0099L11.244 14.1921C11.138 14.228 11.0358 14.2256 10.9375 14.1849C10.8393 14.1444 10.7619 14.0801 10.7055 13.9921L10.617 13.8356C10.5605 13.7407 10.5403 13.6369 10.5562 13.5241C10.5719 13.4113 10.6238 13.3199 10.7118 13.2498L11.1107 12.9331C11.0628 12.7604 11.0388 12.5903 11.0388 12.4228C11.0388 12.2553 11.0628 12.0853 11.1107 11.9126L10.7183 11.5831C10.6303 11.513 10.5773 11.4243 10.5593 11.3171C10.5413 11.2098 10.5605 11.1087 10.617 11.0139L10.7157 10.8473C10.7721 10.7592 10.8488 10.6948 10.9458 10.6543C11.0428 10.6137 11.1443 10.6114 11.2503 10.6473L11.74 10.8293C11.8622 10.7147 11.9945 10.6205 12.1368 10.5466C12.2792 10.4726 12.4298 10.4121 12.5888 10.3651L12.6695 9.8561C12.69 9.74332 12.7427 9.65254 12.8273 9.58376C12.9119 9.51499 13.0105 9.4806 13.1233 9.4806H13.3003C13.4131 9.4806 13.5118 9.51671 13.5965 9.58893C13.681 9.66115 13.7336 9.75365 13.7542 9.86643L13.8285 10.3651C13.9875 10.4121 14.1382 10.4743 14.2805 10.5518C14.4227 10.6291 14.5549 10.7284 14.6772 10.8498L15.1465 10.6678C15.2593 10.625 15.3665 10.6239 15.4683 10.6644C15.57 10.7051 15.649 10.7729 15.7055 10.8678L15.8003 11.0241C15.8567 11.119 15.8759 11.2218 15.858 11.3324C15.84 11.4431 15.787 11.5335 15.699 11.6036L15.3067 11.9331C15.3545 12.0921 15.3785 12.2588 15.3785 12.4331C15.3785 12.6074 15.3545 12.7741 15.3067 12.9331L15.7055 13.2498C15.7935 13.3199 15.8454 13.4096 15.8612 13.5189C15.8769 13.6284 15.8567 13.7305 15.8003 13.8254L15.7015 13.9921C15.6452 14.0801 15.5695 14.1444 15.4747 14.1849C15.3798 14.2256 15.2793 14.228 15.1733 14.1921L14.6772 14.0099C14.5507 14.1245 14.4174 14.2198 14.2772 14.2959C14.137 14.3719 13.9875 14.4334 13.8285 14.4804L13.7542 14.9894C13.7336 15.1023 13.681 15.1932 13.5965 15.2619C13.5118 15.3307 13.4131 15.3651 13.3003 15.3651H13.1233C13.0105 15.3651 12.9119 15.329 12.8273 15.2568C12.7427 15.1845 12.69 15.092 12.6695 14.9793Z" fill="white"/>
</g>
</svg>
