<svg width="20" height="20" viewBox="0 0 20 20" fill="none" xmlns="http://www.w3.org/2000/svg">
<mask id="mask0_6059_3352" style="mask-type:alpha" maskUnits="userSpaceOnUse" x="2" y="2" width="16" height="16">
<rect x="2" y="2" width="16" height="16" fill="#D9D9D9"/>
</mask>
<g mask="url(#mask0_6059_3352)">
<path d="M8.66699 9.7946C8.02533 9.7946 7.47605 9.56615 7.01916 9.10926C6.56216 8.65226 6.33366 8.10293 6.33366 7.46126C6.33366 6.8196 6.56216 6.27032 7.01916 5.81343C7.47605 5.35643 8.02533 5.12793 8.66699 5.12793C9.30866 5.12793 9.85794 5.35643 10.3148 5.81343C10.7718 6.27032 11.0003 6.8196 11.0003 7.46126C11.0003 8.10293 10.7718 8.65226 10.3148 9.10926C9.85794 9.56615 9.30866 9.7946 8.66699 9.7946ZM3.66699 13.8588V13.3894C3.66699 13.0528 3.75399 12.7479 3.92799 12.4748C4.10188 12.2017 4.34055 11.9882 4.64399 11.8344C5.24566 11.5293 5.86921 11.2925 6.51466 11.1241C7.1601 10.9558 7.82116 10.8716 8.49783 10.8716H8.59399C8.73566 10.8716 8.85438 10.9214 8.95016 11.0211C9.04594 11.1209 9.09383 11.2414 9.09383 11.3828C9.09383 11.524 9.04594 11.6425 8.95016 11.7383C8.85438 11.8339 8.73566 11.8818 8.59399 11.8818H8.49783C7.89638 11.8818 7.31377 11.9542 6.74999 12.0991C6.1861 12.244 5.63705 12.4553 5.10283 12.7331C4.97471 12.8014 4.87005 12.892 4.78883 13.0049C4.7076 13.1177 4.66699 13.2459 4.66699 13.3894V13.8716H8.59399C8.73566 13.8716 8.85438 13.9195 8.95016 14.0154C9.04594 14.1112 9.09383 14.23 9.09383 14.3718C9.09383 14.5135 9.04594 14.6323 8.95016 14.7279C8.85438 14.8237 8.73566 14.8716 8.59399 14.8716H4.67983C4.3986 14.8716 4.15949 14.7731 3.96249 14.5761C3.76549 14.379 3.66699 14.1399 3.66699 13.8588ZM12.6695 14.9793L12.5888 14.4804C12.4298 14.4334 12.2802 14.3719 12.14 14.2959C11.9999 14.2198 11.8665 14.1245 11.74 14.0099L11.244 14.1921C11.138 14.228 11.0355 14.2258 10.9367 14.1854C10.8379 14.1451 10.7608 14.0807 10.7055 13.9921L10.617 13.8356C10.5605 13.7407 10.5403 13.6373 10.5563 13.5254C10.5723 13.4135 10.6242 13.3217 10.7118 13.2498L11.1107 12.9331C11.0628 12.7604 11.0388 12.5903 11.0388 12.4228C11.0388 12.2553 11.0628 12.0853 11.1107 11.9126L10.7183 11.5831C10.6303 11.513 10.5773 11.4243 10.5593 11.3171C10.5413 11.2098 10.5605 11.1087 10.617 11.0139L10.7157 10.8473C10.7722 10.7586 10.849 10.6941 10.946 10.6538C11.0429 10.6135 11.1443 10.6114 11.2503 10.6473L11.74 10.8293C11.8622 10.7147 11.9945 10.6205 12.1368 10.5466C12.2792 10.4726 12.4298 10.4121 12.5888 10.3651L12.6695 9.8561C12.69 9.74332 12.7427 9.65254 12.8273 9.58376C12.9119 9.51499 13.0105 9.4806 13.1233 9.4806H13.3003C13.4131 9.4806 13.5118 9.51671 13.5965 9.58893C13.681 9.66115 13.7336 9.75365 13.7542 9.86643L13.8285 10.3651C13.9875 10.4121 14.1382 10.4743 14.2805 10.5518C14.4227 10.6291 14.5549 10.7284 14.6772 10.8498L15.1465 10.6678C15.2593 10.625 15.3665 10.6239 15.4683 10.6644C15.57 10.7051 15.6488 10.7718 15.7048 10.8646L15.8008 11.0271C15.8568 11.12 15.8759 11.2218 15.858 11.3324C15.84 11.4431 15.787 11.5335 15.699 11.6036L15.3067 11.9331C15.3545 12.0934 15.3785 12.2604 15.3785 12.4341C15.3785 12.6078 15.3545 12.7741 15.3067 12.9331L15.7055 13.2498C15.7935 13.3199 15.8454 13.4096 15.8612 13.5189C15.8769 13.6284 15.8567 13.7305 15.8003 13.8254L15.7015 13.9921C15.6459 14.0807 15.5705 14.1451 15.4753 14.1854C15.38 14.2258 15.2793 14.228 15.1733 14.1921L14.6772 14.0099C14.5507 14.1245 14.4174 14.2198 14.2772 14.2959C14.137 14.3719 13.9875 14.4334 13.8285 14.4804L13.7542 14.9894C13.7336 15.1023 13.681 15.1932 13.5965 15.2619C13.5118 15.3307 13.4131 15.3651 13.3003 15.3651H13.1233C13.0105 15.3651 12.9119 15.329 12.8273 15.2568C12.7427 15.1845 12.69 15.092 12.6695 14.9793ZM13.206 13.6921C13.5552 13.6921 13.8539 13.5678 14.1022 13.3191C14.3505 13.0704 14.4747 12.7715 14.4747 12.4223C14.4747 12.073 14.3503 11.7743 14.1017 11.5261C13.853 11.2778 13.554 11.1536 13.2048 11.1536C12.8557 11.1536 12.557 11.2779 12.3087 11.5266C12.0603 11.7753 11.9362 12.0742 11.9362 12.4234C11.9362 12.7725 12.0605 13.0713 12.3092 13.3196C12.5578 13.5679 12.8568 13.6921 13.206 13.6921ZM8.66699 8.7946C9.03366 8.7946 9.34755 8.66404 9.60866 8.40293C9.86977 8.14182 10.0003 7.82793 10.0003 7.46126C10.0003 7.0946 9.86977 6.78071 9.60866 6.5196C9.34755 6.25849 9.03366 6.12793 8.66699 6.12793C8.30033 6.12793 7.98644 6.25849 7.72533 6.5196C7.46421 6.78071 7.33366 7.0946 7.33366 7.46126C7.33366 7.82793 7.46421 8.14182 7.72533 8.40293C7.98644 8.66404 8.30033 8.7946 8.66699 8.7946Z" fill="#64748B"/>
</g>
</svg>
