<svg width="20" height="20" viewBox="0 0 20 20" fill="none" xmlns="http://www.w3.org/2000/svg">
<mask id="mask0_6059_112512" style="mask-type:alpha" maskUnits="userSpaceOnUse" x="2" y="2" width="16" height="16">
<rect x="2" y="2" width="16" height="16" fill="#D9D9D9"/>
</mask>
<g mask="url(#mask0_6059_112512)">
<path d="M5.53817 15.6663C5.2014 15.6663 4.91634 15.5497 4.68301 15.3163C4.44967 15.083 4.33301 14.798 4.33301 14.4612V5.53817C4.33301 5.2014 4.44967 4.91634 4.68301 4.68301C4.91634 4.44967 5.2014 4.33301 5.53817 4.33301H14.4612C14.798 4.33301 15.083 4.44967 15.3163 4.68301C15.5497 4.91634 15.6663 5.2014 15.6663 5.53817V14.4612C15.6663 14.798 15.5497 15.083 15.3163 15.3163C15.083 15.5497 14.798 15.6663 14.4612 15.6663H5.53817ZM5.33301 7.77401H14.6663V5.53817C14.6663 5.48684 14.645 5.43984 14.6022 5.39717C14.5595 5.3544 14.5125 5.33301 14.4612 5.33301H5.53817C5.48684 5.33301 5.43984 5.3544 5.39717 5.39717C5.3544 5.43984 5.33301 5.48684 5.33301 5.53817V7.77401ZM5.33301 11.2253H14.6663V8.77401H5.33301V11.2253ZM5.53817 14.6663H14.4612C14.5125 14.6663 14.5595 14.645 14.6022 14.6022C14.645 14.5595 14.6663 14.5125 14.6663 14.4612V12.2253H5.33301V14.4612C5.33301 14.5125 5.3544 14.5595 5.39717 14.6022C5.43984 14.645 5.48684 14.6663 5.53817 14.6663ZM6.85751 7.15101C6.68651 7.15101 6.54351 7.09312 6.42851 6.97734C6.31362 6.86167 6.25617 6.71834 6.25617 6.54734C6.25617 6.37623 6.31401 6.23323 6.42967 6.11834C6.54534 6.00334 6.68873 5.94584 6.85984 5.94584C7.03084 5.94584 7.17384 6.00367 7.28884 6.11934C7.40373 6.23512 7.46117 6.37851 7.46117 6.54951C7.46117 6.72062 7.40334 6.86362 7.28767 6.97851C7.17201 7.09351 7.02862 7.15101 6.85751 7.15101ZM6.85751 10.6022C6.68651 10.6022 6.54351 10.5443 6.42851 10.4287C6.31362 10.313 6.25617 10.1696 6.25617 9.99851C6.25617 9.82751 6.31401 9.68451 6.42967 9.56951C6.54534 9.45462 6.68873 9.39717 6.85984 9.39717C7.03084 9.39717 7.17384 9.45501 7.28884 9.57067C7.40373 9.68634 7.46117 9.82973 7.46117 10.0008C7.46117 10.1718 7.40334 10.3148 7.28767 10.4298C7.17201 10.5447 7.02862 10.6022 6.85751 10.6022ZM6.85751 14.0535C6.68651 14.0535 6.54351 13.9957 6.42851 13.88C6.31362 13.7642 6.25617 13.6208 6.25617 13.4498C6.25617 13.2787 6.31401 13.1357 6.42967 13.0208C6.54534 12.9058 6.68873 12.8483 6.85984 12.8483C7.03084 12.8483 7.17384 12.9062 7.28884 13.022C7.40373 13.1377 7.46117 13.281 7.46117 13.452C7.46117 13.6231 7.40334 13.7661 7.28767 13.881C7.17201 13.996 7.02862 14.0535 6.85751 14.0535Z" fill="#64748B"/>
</g>
</svg>
