<svg width="20" height="20" viewBox="0 0 20 20" fill="none" xmlns="http://www.w3.org/2000/svg">
<mask id="mask0_6059_9460" style="mask-type:alpha" maskUnits="userSpaceOnUse" x="2" y="2" width="16" height="16">
<rect x="2" y="2" width="16" height="16" fill="#D9D9D9"/>
</mask>
<g mask="url(#mask0_6059_9460)">
<path d="M4.33301 7.64068H15.6663V5.82668C15.6663 5.57557 15.5785 5.36213 15.4027 5.18635C15.2269 5.01068 15.0135 4.92285 14.7625 4.92285H5.23684C4.98584 4.92285 4.77245 5.01068 4.59667 5.18635C4.4209 5.36213 4.33301 5.57557 4.33301 5.82668V7.64068ZM4.33301 11.3587H15.6663V8.64068H4.33301V11.3587ZM5.23684 15.0765H14.7625C15.0135 15.0765 15.2269 14.9887 15.4027 14.813C15.5785 14.6372 15.6663 14.4238 15.6663 14.1727V12.3587H4.33301V14.1727C4.33301 14.4238 4.4209 14.6372 4.59667 14.813C4.77245 14.9887 4.98584 15.0765 5.23684 15.0765ZM5.85751 6.88435C5.68651 6.88435 5.54351 6.82646 5.42851 6.71068C5.31362 6.59502 5.25617 6.45168 5.25617 6.28068C5.25617 6.10957 5.31401 5.96657 5.42967 5.85168C5.54534 5.73668 5.68873 5.67918 5.85984 5.67918C6.03084 5.67918 6.17384 5.73702 6.28884 5.85268C6.40373 5.96846 6.46117 6.11185 6.46117 6.28285C6.46117 6.45396 6.40334 6.59696 6.28767 6.71185C6.17201 6.82685 6.02862 6.88435 5.85751 6.88435ZM5.85751 10.6022C5.68651 10.6022 5.54351 10.5444 5.42851 10.4287C5.31362 10.313 5.25617 10.1696 5.25617 9.99852C5.25617 9.82752 5.31401 9.68452 5.42967 9.56952C5.54534 9.45463 5.68873 9.39718 5.85984 9.39718C6.03084 9.39718 6.17384 9.45502 6.28884 9.57068C6.40373 9.68635 6.46117 9.82974 6.46117 10.0009C6.46117 10.1719 6.40334 10.3149 6.28767 10.4299C6.17201 10.5447 6.02862 10.6022 5.85751 10.6022ZM5.85751 14.3202C5.68651 14.3202 5.54351 14.2624 5.42851 14.1467C5.31362 14.0309 5.25617 13.8875 5.25617 13.7165C5.25617 13.5454 5.31401 13.4024 5.42967 13.2875C5.54534 13.1725 5.68873 13.115 5.85984 13.115C6.03084 13.115 6.17384 13.1729 6.28884 13.2887C6.40373 13.4044 6.46117 13.5477 6.46117 13.7187C6.46117 13.8898 6.40334 14.0328 6.28767 14.1477C6.17201 14.2627 6.02862 14.3202 5.85751 14.3202Z" fill="white"/>
</g>
</svg>
