<svg width="20" height="20" viewBox="0 0 20 20" fill="none" xmlns="http://www.w3.org/2000/svg">
<mask id="mask0_6059_30594" style="mask-type:alpha" maskUnits="userSpaceOnUse" x="2" y="2" width="16" height="16">
<rect x="2" y="2" width="16" height="16" fill="#D9D9D9"/>
</mask>
<g mask="url(#mask0_6059_30594)">
<path d="M10.0902 15.6663C9.94827 15.6663 9.82944 15.6185 9.73366 15.5227C9.63799 15.427 9.59016 15.3082 9.59016 15.1663C9.59016 15.0245 9.63799 14.9057 9.73366 14.81C9.82944 14.7142 9.94827 14.6663 10.0902 14.6663H14.4618C14.5174 14.6663 14.5655 14.6492 14.6062 14.615C14.6467 14.5809 14.667 14.5361 14.667 14.4805V9.81767C14.667 8.54323 14.211 7.47034 13.299 6.59901C12.3871 5.72767 11.2875 5.29201 10.0003 5.29201C8.7131 5.29201 7.61355 5.72767 6.70166 6.59901C5.78966 7.47034 5.33366 8.54323 5.33366 9.81767V13.2432C5.33366 13.3851 5.28577 13.5039 5.18999 13.5997C5.09433 13.6953 4.97555 13.7432 4.83366 13.7432C4.51399 13.7432 4.23966 13.6319 4.01066 13.4093C3.78155 13.1867 3.66699 12.9155 3.66699 12.5958V11.301C3.66699 11.0848 3.72855 10.8867 3.85166 10.7067C3.97477 10.5268 4.13544 10.3822 4.33366 10.2728L4.36449 9.42151C4.41494 8.69584 4.60016 8.02362 4.92016 7.40484C5.24027 6.78606 5.65355 6.2474 6.15999 5.78884C6.66633 5.33029 7.24944 4.97301 7.90933 4.71701C8.5691 4.46101 9.2661 4.33301 10.0003 4.33301C10.7345 4.33301 11.4298 4.46101 12.0862 4.71701C12.7426 4.97301 13.3247 5.32856 13.8323 5.78367C14.34 6.23879 14.7522 6.77573 15.0688 7.39451C15.3855 8.0134 15.5746 8.68562 15.6362 9.41117L15.667 10.2458C15.861 10.3373 16.0206 10.4681 16.1458 10.6382C16.271 10.8083 16.3337 10.998 16.3337 11.2073V12.6958C16.3337 12.9052 16.271 13.0949 16.1458 13.265C16.0206 13.4351 15.861 13.5659 15.667 13.6573V14.4805C15.667 14.8086 15.5493 15.0883 15.3138 15.3195C15.0783 15.5507 14.7943 15.6663 14.4618 15.6663H10.0902ZM8.12849 11.1792C7.96527 11.1792 7.82616 11.1238 7.71116 11.0132C7.59627 10.9025 7.53883 10.7655 7.53883 10.6022C7.53883 10.439 7.59627 10.301 7.71116 10.1882C7.82616 10.0753 7.96527 10.0188 8.12849 10.0188C8.29183 10.0188 8.43094 10.0753 8.54583 10.1882C8.66083 10.301 8.71833 10.439 8.71833 10.6022C8.71833 10.7655 8.66083 10.9025 8.54583 11.0132C8.43094 11.1238 8.29183 11.1792 8.12849 11.1792ZM11.8722 11.1792C11.7088 11.1792 11.5697 11.1238 11.4548 11.0132C11.3398 10.9025 11.2823 10.7655 11.2823 10.6022C11.2823 10.439 11.3398 10.301 11.4548 10.1882C11.5697 10.0753 11.7088 10.0188 11.8722 10.0188C12.0354 10.0188 12.1745 10.0753 12.2895 10.1882C12.4044 10.301 12.4618 10.439 12.4618 10.6022C12.4618 10.7655 12.4044 10.9025 12.2895 11.0132C12.1745 11.1238 12.0354 11.1792 11.8722 11.1792ZM6.24783 10.133C6.1786 9.04501 6.51705 8.11401 7.26316 7.34001C8.00927 6.56612 8.93277 6.17917 10.0337 6.17917C10.9584 6.17917 11.7744 6.46529 12.4817 7.03751C13.189 7.60973 13.6183 8.35051 13.7695 9.25984C12.8225 9.24873 11.9475 9.00006 11.1445 8.51384C10.3415 8.02751 9.72505 7.36084 9.29516 6.51384C9.12594 7.34284 8.77127 8.07573 8.23116 8.71251C7.69094 9.34929 7.02983 9.82279 6.24783 10.133Z" fill="white"/>
</g>
</svg>
