<svg width="20" height="20" viewBox="0 0 20 20" fill="none" xmlns="http://www.w3.org/2000/svg">
<mask id="mask0_6059_68" style="mask-type:alpha" maskUnits="userSpaceOnUse" x="2" y="2" width="16" height="16">
<rect x="2" y="2" width="16" height="16" fill="#D9D9D9"/>
</mask>
<g mask="url(#mask0_6059_68)">
<path d="M5.53817 15.6663C5.20573 15.6663 4.92173 15.5486 4.68617 15.3132C4.45073 15.0776 4.33301 14.7936 4.33301 14.4612V5.53817C4.33301 5.20573 4.45073 4.92173 4.68617 4.68617C4.92173 4.45073 5.20573 4.33301 5.53817 4.33301H14.4612C14.7936 4.33301 15.0776 4.45073 15.3132 4.68617C15.5486 4.92173 15.6663 5.20573 15.6663 5.53817V14.4612C15.6663 14.7936 15.5486 15.0776 15.3132 15.3132C15.0776 15.5486 14.7936 15.6663 14.4612 15.6663H5.53817ZM10.4997 10.4997V14.6663H14.4612C14.5211 14.6663 14.5702 14.6471 14.6087 14.6087C14.6471 14.5702 14.6663 14.5211 14.6663 14.4612V10.4997H10.4997ZM10.4997 9.49967H14.6663V5.53817C14.6663 5.47829 14.6471 5.42912 14.6087 5.39067C14.5702 5.35223 14.5211 5.33301 14.4612 5.33301H10.4997V9.49967ZM9.49967 9.49967V5.33301H5.53817C5.47829 5.33301 5.42912 5.35223 5.39067 5.39067C5.35223 5.42912 5.33301 5.47829 5.33301 5.53817V9.49967H9.49967ZM9.49967 10.4997H5.33301V14.4612C5.33301 14.5211 5.35223 14.5702 5.39067 14.6087C5.42912 14.6471 5.47829 14.6663 5.53817 14.6663H9.49967V10.4997Z" fill="#64748B"/>
</g>
</svg>
