<svg width="20" height="20" viewBox="0 0 20 20" fill="none" xmlns="http://www.w3.org/2000/svg">
<mask id="mask0_6059_273483" style="mask-type:alpha" maskUnits="userSpaceOnUse" x="2" y="2" width="16" height="16">
<rect x="2" y="2" width="16" height="16" fill="#D9D9D9"/>
</mask>
<g mask="url(#mask0_6059_273483)">
<path d="M10.4997 10.4997H15.6663V14.4612C15.6663 14.7926 15.5483 15.0763 15.3123 15.3123C15.0763 15.5483 14.7926 15.6663 14.4612 15.6663H10.4997V10.4997ZM10.4997 9.49967V4.33301H14.4612C14.7926 4.33301 15.0763 4.45101 15.3123 4.68701C15.5483 4.92301 15.6663 5.20673 15.6663 5.53817V9.49967H10.4997ZM9.49967 9.49967H4.33301V5.53817C4.33301 5.20673 4.45101 4.92301 4.68701 4.68701C4.92301 4.45101 5.20673 4.33301 5.53817 4.33301H9.49967V9.49967ZM9.49967 10.4997V15.6663H5.53817C5.20673 15.6663 4.92301 15.5483 4.68701 15.3123C4.45101 15.0763 4.33301 14.7926 4.33301 14.4612V10.4997H9.49967Z" fill="white"/>
</g>
</svg>
