<svg width="20" height="20" viewBox="0 0 20 20" fill="none" xmlns="http://www.w3.org/2000/svg">
<mask id="mask0_6059_200511" style="mask-type:alpha" maskUnits="userSpaceOnUse" x="2" y="2" width="16" height="16">
<rect x="2" y="2" width="16" height="16" fill="#D9D9D9"/>
</mask>
<g mask="url(#mask0_6059_200511)">
<path d="M7.67667 15.6663C6.74245 15.6663 5.95162 15.3426 5.30417 14.6952C4.65673 14.0477 4.33301 13.2562 4.33301 12.3205C4.33301 11.9298 4.3999 11.5495 4.53367 11.1793C4.66745 10.8091 4.85912 10.4736 5.10867 10.1728L7.46251 7.34201L6.39967 5.20351C6.29712 5.00273 6.30334 4.80745 6.41834 4.61767C6.53323 4.4279 6.70567 4.33301 6.93567 4.33301H13.0637C13.2937 4.33301 13.4661 4.4279 13.581 4.61767C13.696 4.80745 13.7022 5.00273 13.5997 5.20351L12.5368 7.34201L14.8907 10.1728C15.1402 10.4736 15.3319 10.8091 15.4657 11.1793C15.5995 11.5495 15.6663 11.9298 15.6663 12.3205C15.6663 13.2562 15.3413 14.0477 14.6912 14.6952C14.041 15.3426 13.2515 15.6663 12.3227 15.6663H7.67667ZM9.99851 12.4932C9.66684 12.4932 9.38329 12.3751 9.14784 12.1388C8.91229 11.9026 8.79451 11.6187 8.79451 11.287C8.79451 10.9552 8.91262 10.6716 9.14884 10.4362C9.38506 10.2007 9.66906 10.083 10.0008 10.083C10.3325 10.083 10.6161 10.2011 10.8515 10.4373C11.0871 10.6736 11.2048 10.9576 11.2048 11.2893C11.2048 11.621 11.0867 11.9046 10.8505 12.14C10.6143 12.3755 10.3303 12.4932 9.99851 12.4932ZM8.37784 6.91634H11.6278L12.4163 5.33301H7.58301L8.37784 6.91634ZM7.67667 14.6663H12.3227C12.9776 14.6663 13.5319 14.4383 13.9857 13.9823C14.4395 13.5263 14.6663 12.9727 14.6663 12.3213C14.6663 12.047 14.6191 11.7806 14.5247 11.5222C14.4302 11.2636 14.2954 11.0301 14.1202 10.8215L11.7022 7.91634H8.31384L5.88551 10.8112C5.71029 11.0197 5.5744 11.2553 5.47784 11.5178C5.38129 11.7803 5.33301 12.0485 5.33301 12.3225C5.33301 12.9731 5.56101 13.5263 6.01701 13.9823C6.47301 14.4383 7.02623 14.6663 7.67667 14.6663Z" fill="#64748B"/>
</g>
</svg>
