<svg width="20" height="21" viewBox="0 0 20 21" fill="none" xmlns="http://www.w3.org/2000/svg">
<mask id="mask0_6059_14956" style="mask-type:alpha" maskUnits="userSpaceOnUse" x="2" y="2" width="16" height="17">
<rect x="2" y="2.5" width="16" height="16" fill="#D9D9D9"/>
</mask>
<g mask="url(#mask0_6059_14956)">
<path d="M9.99851 12.9932C9.66684 12.9932 9.38329 12.8751 9.14784 12.6388C8.91229 12.4026 8.79451 12.1187 8.79451 11.787C8.79451 11.4552 8.91262 11.1716 9.14884 10.9362C9.38506 10.7007 9.66906 10.583 10.0008 10.583C10.3325 10.583 10.6161 10.7011 10.8515 10.9373C11.0871 11.1736 11.2048 11.4576 11.2048 11.7893C11.2048 12.121 11.0867 12.4046 10.8505 12.64C10.6143 12.8755 10.3303 12.9932 9.99851 12.9932ZM7.24967 7.41634H12.7497L13.5997 5.70351C13.7022 5.50273 13.696 5.30745 13.581 5.11767C13.4661 4.9279 13.2937 4.83301 13.0637 4.83301H6.93567C6.70567 4.83301 6.53323 4.9279 6.41834 5.11767C6.30334 5.30745 6.29712 5.50273 6.39967 5.70351L7.24967 7.41634ZM7.67667 16.1663H12.3227C13.2515 16.1663 14.041 15.8426 14.6912 15.1952C15.3413 14.5477 15.6663 13.7562 15.6663 12.8205C15.6663 12.4298 15.5995 12.0495 15.4657 11.6793C15.3319 11.3091 15.1402 10.9736 14.8907 10.6728L13.0098 8.41634H6.98951L5.10867 10.6728C4.85912 10.9736 4.66745 11.3091 4.53367 11.6793C4.3999 12.0495 4.33301 12.4298 4.33301 12.8205C4.33301 13.7562 4.65673 14.5477 5.30417 15.1952C5.95162 15.8426 6.74245 16.1663 7.67667 16.1663Z" fill="white"/>
</g>
</svg>
