<svg width="20" height="21" viewBox="0 0 20 21" fill="none" xmlns="http://www.w3.org/2000/svg">
<mask id="mask0_6059_6847" style="mask-type:alpha" maskUnits="userSpaceOnUse" x="2" y="2" width="16" height="17">
<rect x="2" y="2.5" width="16" height="16" fill="#D9D9D9"/>
</mask>
<g mask="url(#mask0_6059_6847)">
<path d="M12.667 9.67268C12.8302 9.67268 12.9693 9.61523 13.0843 9.50034C13.1992 9.38534 13.2567 9.24623 13.2567 9.08301C13.2567 8.91979 13.1992 8.78067 13.0843 8.66568C12.9693 8.55079 12.8302 8.49334 12.667 8.49334C12.5038 8.49334 12.3647 8.55079 12.2497 8.66568C12.1348 8.78067 12.0773 8.91979 12.0773 9.08301C12.0773 9.24623 12.1348 9.38534 12.2497 9.50034C12.3647 9.61523 12.5038 9.67268 12.667 9.67268ZM7.33366 8.24967H10.667V7.24967H7.33366V8.24967ZM5.25033 16.083C4.89821 14.8676 4.54633 13.6582 4.19466 12.4548C3.84288 11.2514 3.66699 10.0163 3.66699 8.74967C3.66699 7.82145 3.99049 7.03384 4.63749 6.38684C5.28449 5.73984 6.0721 5.41634 7.00033 5.41634H10.5003C10.8054 5.01545 11.1715 4.69301 11.5985 4.44901C12.0254 4.20501 12.4927 4.08301 13.0003 4.08301C13.1841 4.08301 13.3412 4.14606 13.4715 4.27217C13.6018 4.39817 13.667 4.55306 13.667 4.73684C13.667 4.80951 13.6435 4.91162 13.5965 5.04317C13.5435 5.20395 13.4954 5.36423 13.4522 5.52401C13.409 5.6839 13.3721 5.84756 13.3413 6.01501L15.076 7.74967H16.3337V11.8227L14.5143 12.4202L13.417 16.083H10.3337V14.7497H8.33366V16.083H5.25033Z" fill="white"/>
</g>
</svg>
