<svg width="20" height="20" viewBox="0 0 20 20" fill="none" xmlns="http://www.w3.org/2000/svg">
<mask id="mask0_6059_34622" style="mask-type:alpha" maskUnits="userSpaceOnUse" x="2" y="2" width="16" height="16">
<rect x="2" y="2" width="16" height="16" fill="#D9D9D9"/>
</mask>
<g mask="url(#mask0_6059_34622)">
<path d="M12.667 9.17268C12.8302 9.17268 12.9693 9.11523 13.0843 9.00034C13.1992 8.88534 13.2567 8.74623 13.2567 8.58301C13.2567 8.41979 13.1992 8.28067 13.0843 8.16568C12.9693 8.05079 12.8302 7.99334 12.667 7.99334C12.5038 7.99334 12.3647 8.05079 12.2497 8.16568C12.1348 8.28067 12.0773 8.41979 12.0773 8.58301C12.0773 8.74623 12.1348 8.88534 12.2497 9.00034C12.3647 9.11523 12.5038 9.17268 12.667 9.17268ZM7.33366 7.74967H10.667V6.74967H7.33366V7.74967ZM5.25033 15.583C4.89821 14.3676 4.54633 13.1582 4.19466 11.9548C3.84288 10.7514 3.66699 9.51634 3.66699 8.24967C3.66699 7.32145 3.99049 6.53384 4.63749 5.88684C5.28449 5.23984 6.0721 4.91634 7.00033 4.91634H10.5003C10.8054 4.51545 11.1715 4.19301 11.5985 3.94901C12.0254 3.70501 12.4927 3.58301 13.0003 3.58301C13.1841 3.58301 13.3412 3.64817 13.4715 3.77851C13.6018 3.90884 13.667 4.0659 13.667 4.24967C13.667 4.29501 13.6608 4.34029 13.6483 4.38551C13.636 4.43084 13.623 4.47273 13.6093 4.51117C13.5478 4.67184 13.4954 4.8364 13.4522 5.00484C13.409 5.17317 13.3721 5.34323 13.3413 5.51501L15.076 7.24967H16.3337V11.3227L14.5143 11.9202L13.417 15.583H10.3337V14.2497H8.33366V15.583H5.25033ZM6.00033 14.583H7.33366V13.2497H11.3337V14.583H12.667L13.7003 11.1497L15.3337 10.5997V8.24967H14.667L12.3337 5.91634C12.3337 5.69412 12.3475 5.48023 12.3753 5.27467C12.4031 5.06912 12.449 4.8629 12.5132 4.65601C12.1909 4.7449 11.9097 4.89984 11.6695 5.12084C11.4294 5.34173 11.2452 5.6069 11.117 5.91634H7.00033C6.35588 5.91634 5.80588 6.14412 5.35033 6.59967C4.89477 7.05523 4.66699 7.60523 4.66699 8.24967C4.66699 9.33856 4.81699 10.4025 5.11699 11.4413C5.41699 12.4802 5.71144 13.5275 6.00033 14.583Z" fill="#64748B"/>
</g>
</svg>
