<svg width="20" height="27" viewBox="0 0 20 27" fill="none" xmlns="http://www.w3.org/2000/svg">
<path fill-rule="evenodd" clip-rule="evenodd" d="M3.50979 19.1777C3.50979 19.1777 2.34952 17.0405 3.23288 15.2196C3.99732 13.6434 5.01482 13.155 5.5286 12.924C6.04238 12.693 14.0778 9.83664 14.0778 9.83664C14.0778 9.83664 15.5562 9.25619 16.9276 9.99496C18.1582 10.6579 18.6238 11.3145 18.9462 12.3303C19.8242 15.096 17.4877 16.6494 16.5711 17.0403C15.917 17.3194 14.1171 18.0695 14.1171 18.0695C14.1171 18.0695 13.8277 16.744 12.0985 15.8134C11.4439 15.4611 10.381 15.1617 9.68406 15.1009C7.80366 14.9369 5.59288 15.9608 4.65701 17.1987C3.69511 18.4722 3.50979 19.1777 3.50979 19.1777Z" fill="#3A358C"/>
<path d="M9.14898 26.1798C11.892 26.1798 14.1156 23.9558 14.1156 21.2123C14.1156 18.4689 11.892 16.2449 9.14898 16.2449C6.406 16.2449 4.18237 18.4689 4.18237 21.2123C4.18237 23.9558 6.406 26.1798 9.14898 26.1798Z" fill="#85BF4B"/>
<path fill-rule="evenodd" clip-rule="evenodd" d="M2.2429 15.6098C2.2429 15.6098 0.143143 9.82685 0.0659796 9.35598C-0.0111836 8.88512 -0.483109 5.68123 2.87623 4.48752C6.49587 3.20125 14.7505 0.252333 14.7505 0.252333C14.7505 0.252333 18.3679 -1.09304 19.7377 2.4293C20.822 5.21745 18.194 6.98107 18.194 6.98107C17.8807 7.17173 17.5493 7.33085 17.2046 7.45609C16.8699 7.57804 4.93445 11.8892 4.93445 11.8892C3.88856 12.3308 2.95973 12.94 2.41368 14.4533C2.28443 14.8246 2.22649 15.217 2.2429 15.6098Z" fill="#50BFBF"/>
</svg>
