<svg width="20" height="20" viewBox="0 0 20 20" fill="none" xmlns="http://www.w3.org/2000/svg">
<mask id="mask0_6059_70946" style="mask-type:alpha" maskUnits="userSpaceOnUse" x="2" y="2" width="16" height="16">
<rect x="2" y="2" width="16" height="16" fill="#D9D9D9"/>
</mask>
<g mask="url(#mask0_6059_70946)">
<path d="M7.72083 11.8337H10.167C10.3087 11.8337 10.4274 11.7857 10.5233 11.6898C10.6191 11.5939 10.667 11.4752 10.667 11.3335C10.667 11.1917 10.6191 11.073 10.5233 10.9773C10.4274 10.8815 10.3087 10.8337 10.167 10.8337H7.72083L8.59266 9.95166C8.68499 9.85933 8.73221 9.74499 8.73433 9.60866C8.73644 9.47233 8.68533 9.35199 8.58099 9.24766C8.48533 9.15199 8.36871 9.10416 8.23116 9.10416C8.09349 9.10416 7.97638 9.15244 7.87983 9.24899L6.21699 10.9118C6.09655 11.0324 6.03633 11.173 6.03633 11.3337C6.03633 11.4943 6.09655 11.6349 6.21699 11.7555L7.87983 13.4183C7.97216 13.5105 8.08649 13.5594 8.22283 13.565C8.35916 13.5705 8.47949 13.5212 8.58383 13.4168C8.67949 13.3212 8.72899 13.2063 8.73233 13.0722C8.73577 12.9379 8.68921 12.8191 8.59266 12.7157L7.72083 11.8337ZM12.2798 9.16699L11.408 10.049C11.3157 10.1413 11.2684 10.2557 11.2663 10.392C11.2642 10.5283 11.3153 10.6487 11.4197 10.753C11.5153 10.8487 11.6319 10.8965 11.7695 10.8965C11.9072 10.8965 12.0243 10.8482 12.1208 10.7517L13.7837 9.08883C13.9041 8.96827 13.9643 8.82766 13.9643 8.66699C13.9643 8.50633 13.9041 8.36571 13.7837 8.24516L12.1208 6.58233C12.0285 6.4901 11.9142 6.44121 11.7778 6.43566C11.6415 6.4301 11.5212 6.47949 11.4168 6.58383C11.3212 6.67949 11.2717 6.79438 11.2683 6.92849C11.2649 7.06271 11.3114 7.18155 11.408 7.28499L12.2798 8.16699H9.83366C9.69199 8.16699 9.57321 8.21494 9.47732 8.31083C9.38155 8.40671 9.33366 8.52549 9.33366 8.66716C9.33366 8.80894 9.38155 8.92766 9.47732 9.02333C9.57321 9.1191 9.69199 9.16699 9.83366 9.16699H12.2798ZM10.0015 16.3337C9.12549 16.3337 8.3021 16.1674 7.53133 15.835C6.76055 15.5025 6.0901 15.0514 5.51999 14.4815C4.94988 13.9116 4.49849 13.2414 4.16583 12.471C3.83327 11.7005 3.66699 10.8774 3.66699 10.0015C3.66699 9.12549 3.83321 8.3021 4.16566 7.53133C4.4981 6.76055 4.94927 6.0901 5.51916 5.51999C6.08905 4.94988 6.75921 4.49849 7.52966 4.16583C8.3001 3.83327 9.12327 3.66699 9.99916 3.66699C10.8752 3.66699 11.6985 3.83321 12.4693 4.16566C13.2401 4.4981 13.9105 4.94927 14.4807 5.51916C15.0508 6.08905 15.5022 6.75921 15.8348 7.52966C16.1674 8.3001 16.3337 9.12327 16.3337 9.99916C16.3337 10.8752 16.1674 11.6985 15.835 12.4693C15.5025 13.2401 15.0514 13.9105 14.4815 14.4807C13.9116 15.0508 13.2414 15.5022 12.471 15.8348C11.7005 16.1674 10.8774 16.3337 10.0015 16.3337ZM10.0003 15.3337C11.4892 15.3337 12.7503 14.817 13.7837 13.7837C14.817 12.7503 15.3337 11.4892 15.3337 10.0003C15.3337 8.51144 14.817 7.25033 13.7837 6.21699C12.7503 5.18366 11.4892 4.66699 10.0003 4.66699C8.51144 4.66699 7.25033 5.18366 6.21699 6.21699C5.18366 7.25033 4.66699 8.51144 4.66699 10.0003C4.66699 11.4892 5.18366 12.7503 6.21699 13.7837C7.25033 14.817 8.51144 15.3337 10.0003 15.3337Z" fill="#64748B"/>
</g>
</svg>
