<svg width="20" height="20" viewBox="0 0 20 20" fill="none" xmlns="http://www.w3.org/2000/svg">
<mask id="mask0_6059_71046" style="mask-type:alpha" maskUnits="userSpaceOnUse" x="2" y="2" width="16" height="16">
<rect x="2" y="2" width="16" height="16" fill="#D9D9D9"/>
</mask>
<g mask="url(#mask0_6059_71046)">
<path d="M4.66699 14.6663H7.55799V9.33301H4.66699V14.6663ZM8.55799 14.6663H11.4427V5.33301H8.55799V14.6663ZM12.4427 14.6663H15.3337V10.6663H12.4427V14.6663ZM3.66699 14.4612V9.53817C3.66699 9.20673 3.78499 8.92301 4.02099 8.68701C4.25699 8.45101 4.54071 8.33301 4.87216 8.33301H7.55799V5.53817C7.55799 5.20673 7.67599 4.92301 7.91199 4.68701C8.14799 4.45101 8.43171 4.33301 8.76316 4.33301H11.2375C11.5689 4.33301 11.8527 4.45101 12.0887 4.68701C12.3247 4.92301 12.4427 5.20673 12.4427 5.53817V9.66634H15.1285C15.4599 9.66634 15.7437 9.78434 15.9797 10.0203C16.2157 10.2563 16.3337 10.5401 16.3337 10.8715V14.4612C16.3337 14.7926 16.2157 15.0763 15.9797 15.3123C15.7437 15.5483 15.4599 15.6663 15.1285 15.6663H4.87216C4.54071 15.6663 4.25699 15.5483 4.02099 15.3123C3.78499 15.0763 3.66699 14.7926 3.66699 14.4612Z" fill="#64748B"/>
</g>
</svg>
