<svg width="20" height="20" viewBox="0 0 20 20" fill="none" xmlns="http://www.w3.org/2000/svg">
<mask id="mask0_6059_119" style="mask-type:alpha" maskUnits="userSpaceOnUse" x="2" y="2" width="16" height="16">
<rect x="2" y="2" width="16" height="16" fill="#D9D9D9"/>
</mask>
<g mask="url(#mask0_6059_119)">
<path d="M14 14.9997H12.5C12.3583 14.9997 12.2395 14.9517 12.1437 14.8558C12.0479 14.76 12 14.6412 12 14.4995C12 14.3577 12.0479 14.239 12.1437 14.1433C12.2395 14.0476 12.3583 13.9997 12.5 13.9997H14V12.4997C14 12.358 14.0479 12.2392 14.1438 12.1433C14.2397 12.0476 14.3585 11.9997 14.5002 11.9997C14.6419 11.9997 14.7607 12.0476 14.8563 12.1433C14.9521 12.2392 15 12.358 15 12.4997V13.9997H16.5C16.6417 13.9997 16.7604 14.0476 16.8562 14.1435C16.952 14.2394 17 14.3582 17 14.4998C17 14.6416 16.952 14.7603 16.8562 14.856C16.7604 14.9518 16.6417 14.9997 16.5 14.9997H15V16.4997C15 16.6413 14.952 16.7601 14.8562 16.8558C14.7603 16.9517 14.6415 16.9997 14.4998 16.9997C14.358 16.9997 14.2393 16.9517 14.1437 16.8558C14.0479 16.7601 14 16.6413 14 16.4997V14.9997ZM4.34616 15.1663C4.17549 15.1663 4.03238 15.1086 3.91682 14.9932C3.80138 14.8776 3.74366 14.7345 3.74366 14.5638V11.1663H3.53716C3.34749 11.1663 3.19132 11.0922 3.06866 10.9438C2.94599 10.7956 2.90688 10.6266 2.95132 10.4368L3.61799 7.30867C3.64832 7.1699 3.71921 7.05595 3.83066 6.96684C3.94199 6.87762 4.06855 6.83301 4.21032 6.83301H12.7897C12.9314 6.83301 13.058 6.87762 13.1695 6.96684C13.2808 7.05595 13.3517 7.1699 13.382 7.30867L14.0487 10.4368C14.0931 10.6266 14.054 10.7956 13.9313 10.9438C13.8088 11.0922 13.6526 11.1663 13.4628 11.1663H13.2563V12.7562C13.2563 12.8977 13.2084 13.0165 13.1127 13.1123C13.0168 13.2081 12.8979 13.256 12.7562 13.256C12.6145 13.256 12.4958 13.2081 12.4 13.1123C12.3043 13.0165 12.2565 12.8977 12.2565 12.7562V11.1663H9.41032V14.5638C9.41032 14.7345 9.35255 14.8776 9.23699 14.9932C9.12155 15.1086 8.97843 15.1663 8.80766 15.1663H4.34616ZM4.74366 14.1663H8.41032V11.1663H4.74366V14.1663ZM4.21799 5.83301C4.07632 5.83301 3.95755 5.78506 3.86166 5.68917C3.76588 5.59329 3.71799 5.47451 3.71799 5.33284C3.71799 5.19106 3.76588 5.07234 3.86166 4.97667C3.95755 4.8809 4.07632 4.83301 4.21799 4.83301H12.782C12.9237 4.83301 13.0424 4.88095 13.1383 4.97684C13.2341 5.07273 13.282 5.19151 13.282 5.33317C13.282 5.47495 13.2341 5.59367 13.1383 5.68934C13.0424 5.78512 12.9237 5.83301 12.782 5.83301H4.21799Z" fill="white"/>
</g>
</svg>
