<svg width="14" height="14" viewBox="0 0 14 14" fill="none" xmlns="http://www.w3.org/2000/svg">
<mask id="mask0_5427_123609" style="mask-type:alpha" maskUnits="userSpaceOnUse" x="0" y="0" width="14" height="14">
<rect width="14" height="14" fill="#D9D9D9"/>
</mask>
<g mask="url(#mask0_5427_123609)">
<path d="M6.56217 7.43754H3.64551C3.52155 7.43754 3.41767 7.39559 3.33386 7.31169C3.24996 7.22778 3.20801 7.12385 3.20801 6.99989C3.20801 6.87584 3.24996 6.77196 3.33386 6.68825C3.41767 6.60444 3.52155 6.56254 3.64551 6.56254H6.56217V3.64587C6.56217 3.52192 6.60413 3.41803 6.68803 3.33423C6.77193 3.25033 6.87586 3.20837 6.99982 3.20837C7.12388 3.20837 7.22776 3.25033 7.31147 3.33423C7.39527 3.41803 7.43717 3.52192 7.43717 3.64587V6.56254H10.3538C10.4778 6.56254 10.5817 6.60449 10.6655 6.6884C10.7494 6.7723 10.7913 6.87623 10.7913 7.00019C10.7913 7.12424 10.7494 7.22812 10.6655 7.31183C10.5817 7.39564 10.4778 7.43754 10.3538 7.43754H7.43717V10.3542C7.43717 10.4782 7.39522 10.582 7.31132 10.6659C7.22742 10.7498 7.12349 10.7917 6.99953 10.7917C6.87547 10.7917 6.77159 10.7498 6.68788 10.6659C6.60408 10.582 6.56217 10.4782 6.56217 10.3542V7.43754Z" fill="white"/>
</g>
</svg>
