<svg width="14" height="14" viewBox="0 0 14 14" fill="none" xmlns="http://www.w3.org/2000/svg">
<mask id="mask0_5608_324506" style="mask-type:alpha" maskUnits="userSpaceOnUse" x="0" y="0" width="14" height="14">
<rect width="14" height="14" fill="#D9D9D9"/>
</mask>
<g mask="url(#mask0_5608_324506)">
<path d="M6.99984 8.19719C6.85702 8.19719 6.7353 8.14687 6.63467 8.04625C6.53414 7.94572 6.48388 7.824 6.48388 7.68108C6.48388 7.53826 6.53414 7.41654 6.63467 7.31592C6.7353 7.21539 6.85702 7.16512 6.99984 7.16512C7.14266 7.16512 7.26438 7.21539 7.365 7.31592C7.46553 7.41654 7.5158 7.53826 7.5158 7.68108C7.5158 7.824 7.46553 7.94572 7.365 8.04625C7.26438 8.14687 7.14266 8.19719 6.99984 8.19719ZM4.6665 8.19719C4.52368 8.19719 4.40196 8.14687 4.30134 8.04625C4.20081 7.94572 4.15055 7.824 4.15055 7.68108C4.15055 7.53826 4.20081 7.41654 4.30134 7.31592C4.40196 7.21539 4.52368 7.16512 4.6665 7.16512C4.80932 7.16512 4.93105 7.21539 5.03167 7.31592C5.1322 7.41654 5.18246 7.53826 5.18246 7.68108C5.18246 7.824 5.1322 7.94572 5.03167 8.04625C4.93105 8.14687 4.80932 8.19719 4.6665 8.19719ZM9.33317 8.19719C9.19035 8.19719 9.06863 8.14687 8.968 8.04625C8.86748 7.94572 8.81721 7.824 8.81721 7.68108C8.81721 7.53826 8.86748 7.41654 8.968 7.31592C9.06863 7.21539 9.19035 7.16512 9.33317 7.16512C9.47599 7.16512 9.59771 7.21539 9.69834 7.31592C9.79886 7.41654 9.84913 7.53826 9.84913 7.68108C9.84913 7.824 9.79886 7.94572 9.69834 8.04625C9.59771 8.14687 9.47599 8.19719 9.33317 8.19719ZM6.99984 10.4856C6.85702 10.4856 6.7353 10.4353 6.63467 10.3347C6.53414 10.2341 6.48388 10.1125 6.48388 9.96965C6.48388 9.82673 6.53414 9.70501 6.63467 9.60448C6.7353 9.50385 6.85702 9.45354 6.99984 9.45354C7.14266 9.45354 7.26438 9.50385 7.365 9.60448C7.46553 9.70501 7.5158 9.82673 7.5158 9.96965C7.5158 10.1125 7.46553 10.2341 7.365 10.3347C7.26438 10.4353 7.14266 10.4856 6.99984 10.4856ZM4.6665 10.4856C4.52368 10.4856 4.40196 10.4353 4.30134 10.3347C4.20081 10.2341 4.15055 10.1125 4.15055 9.96965C4.15055 9.82673 4.20081 9.70501 4.30134 9.60448C4.40196 9.50385 4.52368 9.45354 4.6665 9.45354C4.80932 9.45354 4.93105 9.50385 5.03167 9.60448C5.1322 9.70501 5.18246 9.82673 5.18246 9.96965C5.18246 10.1125 5.1322 10.2341 5.03167 10.3347C4.93105 10.4353 4.80932 10.4856 4.6665 10.4856ZM9.33317 10.4856C9.19035 10.4856 9.06863 10.4353 8.968 10.3347C8.86748 10.2341 8.81721 10.1125 8.81721 9.96965C8.81721 9.82673 8.86748 9.70501 8.968 9.60448C9.06863 9.50385 9.19035 9.45354 9.33317 9.45354C9.47599 9.45354 9.59771 9.50385 9.69834 9.60448C9.79886 9.70501 9.84913 9.82673 9.84913 9.96965C9.84913 10.1125 9.79886 10.2341 9.69834 10.3347C9.59771 10.4353 9.47599 10.4856 9.33317 10.4856ZM3.09602 12.5273C2.80134 12.5273 2.55192 12.4252 2.34775 12.221C2.14359 12.0169 2.0415 11.7674 2.0415 11.4727V3.66513C2.0415 3.37044 2.14359 3.12102 2.34775 2.91685C2.55192 2.71269 2.80134 2.6106 3.09602 2.6106H3.90365V1.37671H4.80111V2.6106H9.22102V1.37671H10.096V2.6106H10.9036C11.1983 2.6106 11.4478 2.71269 11.6519 2.91685C11.8561 3.12102 11.9582 3.37044 11.9582 3.66513V11.4727C11.9582 11.7674 11.8561 12.0169 11.6519 12.221C11.4478 12.4252 11.1983 12.5273 10.9036 12.5273H3.09602ZM3.09602 11.6523H10.9036C10.9486 11.6523 10.9897 11.6336 11.027 11.5961C11.0645 11.5588 11.0832 11.5177 11.0832 11.4727V5.99846H2.9165V11.4727C2.9165 11.5177 2.93522 11.5588 2.97265 11.5961C3.00998 11.6336 3.05111 11.6523 3.09602 11.6523Z" fill="#64748B"/>
</g>
</svg>
