<svg width="12" height="15" viewBox="0 0 12 15" fill="none" xmlns="http://www.w3.org/2000/svg">
<path d="M1.27581 7.66794C1.27581 7.87176 1.28963 8.07489 1.31729 8.27731C1.34506 8.47985 1.39247 8.67943 1.45952 8.87605C1.50414 9.02444 1.49944 9.16632 1.4454 9.3017C1.39137 9.43707 1.29951 9.53428 1.16983 9.59331C1.03306 9.65943 0.896984 9.66477 0.761608 9.60934C0.626232 9.55392 0.536175 9.45206 0.491437 9.30379C0.398474 9.04094 0.331658 8.77117 0.290987 8.49449C0.250316 8.21793 0.22998 7.94241 0.22998 7.66794C0.22998 6.15998 0.754694 4.87664 1.80412 3.81791C2.85355 2.75907 4.12998 2.22965 5.63341 2.22965H6.17776L5.25534 1.30724C5.15878 1.21067 5.10939 1.0893 5.10719 0.943114C5.10498 0.797047 5.15436 0.673465 5.25534 0.572369C5.35632 0.471389 5.47874 0.420898 5.6226 0.420898C5.76658 0.420898 5.88906 0.471389 5.99004 0.572369L7.72907 2.3114C7.85515 2.43748 7.91819 2.58454 7.91819 2.75257C7.91819 2.92059 7.85515 3.06765 7.72907 3.19373L5.99004 4.93276C5.89347 5.02921 5.77216 5.0786 5.62609 5.08092C5.47991 5.08313 5.35632 5.03374 5.25534 4.93276C5.15436 4.83167 5.10387 4.70919 5.10387 4.56533C5.10387 4.42147 5.15436 4.29899 5.25534 4.1979L6.17776 3.27548H5.63341C4.42223 3.27548 3.39314 3.70183 2.54613 4.55452C1.69925 5.40733 1.27581 6.44514 1.27581 7.66794ZM9.99101 7.59822C9.99101 7.3944 9.97719 7.19128 9.94953 6.98885C9.92176 6.78631 9.87435 6.58673 9.8073 6.39012C9.76268 6.24173 9.76738 6.09985 9.82142 5.96447C9.87545 5.82909 9.96731 5.73189 10.097 5.67286C10.2338 5.60674 10.3687 5.60139 10.5019 5.65682C10.6351 5.71225 10.724 5.8141 10.7686 5.96238C10.8615 6.22523 10.9295 6.49499 10.9725 6.77167C11.0154 7.04823 11.0368 7.32375 11.0368 7.59822C11.0368 9.10618 10.5121 10.3895 9.4627 11.4483C8.41327 12.5071 7.13684 13.0365 5.63341 13.0365H5.08906L6.01148 13.9589C6.10804 14.0555 6.15743 14.1769 6.15963 14.3231C6.16184 14.4691 6.11246 14.5927 6.01148 14.6938C5.9105 14.7948 5.78808 14.8453 5.64422 14.8453C5.50024 14.8453 5.37776 14.7948 5.27678 14.6938L3.53775 12.9548C3.41167 12.8287 3.34863 12.6816 3.34863 12.5136C3.34863 12.3456 3.41167 12.1985 3.53775 12.0724L5.27678 10.3334C5.37335 10.237 5.49466 10.1876 5.64073 10.1852C5.78691 10.183 5.9105 10.2324 6.01148 10.3334C6.11246 10.4345 6.16295 10.557 6.16295 10.7008C6.16295 10.8447 6.11246 10.9672 6.01148 11.0683L5.08906 11.9907H5.63341C6.84459 11.9907 7.87368 11.5643 8.72069 10.7116C9.56757 9.85883 9.99101 8.82102 9.99101 7.59822Z" />
</svg>
