<svg width="78" height="28" viewBox="0 0 78 28" fill="none" xmlns="http://www.w3.org/2000/svg">
<path fill-rule="evenodd" clip-rule="evenodd" d="M3.51101 20.0872C3.51101 20.0872 2.35074 17.9499 3.2341 16.1291C3.99854 14.5528 5.01604 14.0644 5.52982 13.8334C6.0436 13.6024 14.079 10.7461 14.079 10.7461C14.079 10.7461 15.5575 10.1656 16.9288 10.9044C18.1594 11.5673 18.625 12.2239 18.9474 13.2397C19.8254 16.0055 17.4889 17.5588 16.5723 17.9498C15.9182 18.2289 14.1184 18.9789 14.1184 18.9789C14.1184 18.9789 13.8289 17.6535 12.0997 16.7228C11.4451 16.3705 10.3823 16.0711 9.68529 16.0103C7.80488 15.8463 5.5941 16.8702 4.65823 18.1081C3.69633 19.3816 3.51101 20.0872 3.51101 20.0872Z" fill="#3A358C"/>
<path d="M9.1502 27.0892C11.8932 27.0892 14.1168 24.8652 14.1168 22.1218C14.1168 19.3783 11.8932 17.1543 9.1502 17.1543C6.40722 17.1543 4.18359 19.3783 4.18359 22.1218C4.18359 24.8652 6.40722 27.0892 9.1502 27.0892Z" fill="#85BF4B"/>
<path fill-rule="evenodd" clip-rule="evenodd" d="M2.2429 16.5199C2.2429 16.5199 0.143143 10.737 0.0659796 10.2661C-0.0111836 9.79528 -0.483109 6.59139 2.87623 5.39767C6.49587 4.11141 14.7505 1.16249 14.7505 1.16249C14.7505 1.16249 18.3679 -0.182886 19.7377 3.33946C20.822 6.12761 18.194 7.89123 18.194 7.89123C17.8807 8.08189 17.5493 8.241 17.2046 8.36625C16.8699 8.48819 4.93445 12.7993 4.93445 12.7993C3.88856 13.241 2.95973 13.8502 2.41368 15.3635C2.28443 15.7348 2.22649 16.1271 2.2429 16.5199Z" fill="#50BFBF"/>
<path d="M34.9863 9.89453V11.1797H30.0781V14.0508H34.5898V15.3223H30.0781V19H28.7246V9.89453H34.9863ZM36.2321 9.73047H37.7907V11.0703H36.2321V9.73047ZM36.3278 12H37.695V19H36.3278V12ZM43.9994 14.8574C43.9994 14.2285 43.8444 13.7773 43.5345 13.5039C43.2246 13.2214 42.8099 13.0801 42.2904 13.0801C41.7982 13.0801 41.3835 13.2396 41.0463 13.5586C40.709 13.8685 40.5404 14.2695 40.5404 14.7617V19H39.1869V12H40.5404V13.0664C40.8047 12.6654 41.1374 12.36 41.5384 12.1504C41.9395 11.9316 42.3451 11.8223 42.7552 11.8223C43.5117 11.8223 44.1315 12.0592 44.6146 12.5332C45.1068 12.998 45.3529 13.6771 45.3529 14.5703V19H43.9994V14.8574ZM53.1065 9.89453V11.1797H48.1983V13.7227H52.71V15.0078H48.1983V17.7285H53.1065V19H46.8448V9.89453H53.1065ZM60.8327 9.19727V19H59.4792V17.7285C59.2331 18.1751 58.9096 18.526 58.5085 18.7812C58.1075 19.0273 57.6517 19.1504 57.1413 19.1504C56.5398 19.1504 56.0111 19 55.5554 18.6992C55.1088 18.3893 54.7579 17.9609 54.5027 17.4141C54.2566 16.8581 54.1335 16.2109 54.1335 15.4727C54.1335 14.7344 54.2566 14.0918 54.5027 13.5449C54.7579 12.998 55.1088 12.5742 55.5554 12.2734C56.0111 11.9727 56.5398 11.8223 57.1413 11.8223C57.6517 11.8223 58.1075 11.9453 58.5085 12.1914C58.9096 12.4375 59.2331 12.7839 59.4792 13.2305V9.19727H60.8327ZM55.528 15.4727C55.528 16.2565 55.7012 16.8672 56.0476 17.3047C56.3939 17.7331 56.877 17.9473 57.4968 17.9473C58.1257 17.9473 58.6133 17.7331 58.9597 17.3047C59.306 16.8672 59.4792 16.2565 59.4792 15.4727C59.4792 14.6979 59.306 14.0964 58.9597 13.668C58.6133 13.2396 58.1257 13.0254 57.4968 13.0254C56.877 13.0254 56.3939 13.2396 56.0476 13.668C55.7012 14.0964 55.528 14.6979 55.528 15.4727ZM68.8871 12V19.1504C68.8871 19.6699 68.7549 20.1257 68.4906 20.5176C68.2263 20.9095 67.8572 21.2103 67.3832 21.4199C66.9092 21.6387 66.3487 21.748 65.7016 21.748C64.7536 21.748 63.9743 21.5339 63.3637 21.1055C62.753 20.6771 62.393 20.112 62.2836 19.4102H63.6781C63.7237 19.7839 63.9197 20.0801 64.266 20.2988C64.6215 20.5176 65.0863 20.627 65.6605 20.627C66.253 20.627 66.7133 20.4902 67.0414 20.2168C67.3695 19.9525 67.5336 19.5742 67.5336 19.082V17.4824C67.2875 17.9199 66.9639 18.2617 66.5629 18.5078C66.1618 18.7448 65.7016 18.8633 65.182 18.8633C64.5805 18.8633 64.0564 18.7174 63.6098 18.4258C63.1631 18.125 62.8122 17.7103 62.557 17.1816C62.3109 16.653 62.1879 16.0378 62.1879 15.3359C62.1879 14.6341 62.3109 14.0189 62.557 13.4902C62.8122 12.9616 63.1631 12.5514 63.6098 12.2598C64.0564 11.9681 64.5805 11.8223 65.182 11.8223C65.7016 11.8223 66.1618 11.9453 66.5629 12.1914C66.9639 12.4284 67.2875 12.7611 67.5336 13.1895V12H68.8871ZM63.5824 15.3359C63.5824 16.0651 63.7556 16.6348 64.102 17.0449C64.4483 17.446 64.9359 17.6465 65.5648 17.6465C66.1937 17.6465 66.6768 17.446 67.0141 17.0449C67.3604 16.6348 67.5336 16.0651 67.5336 15.3359C67.5336 14.6068 67.3604 14.0417 67.0141 13.6406C66.6768 13.2305 66.1937 13.0254 65.5648 13.0254C64.9359 13.0254 64.4483 13.2305 64.102 13.6406C63.7556 14.0417 63.5824 14.6068 63.5824 15.3359ZM70.2423 15.4727C70.2423 14.7253 70.379 14.0827 70.6524 13.5449C70.9259 13.0072 71.3087 12.5924 71.8009 12.3008C72.3022 12.0091 72.8946 11.8633 73.5782 11.8633C74.2345 11.8633 74.8178 12.0182 75.3282 12.3281C75.8386 12.6289 76.2351 13.0482 76.5177 13.5859C76.8093 14.1146 76.9552 14.7207 76.9552 15.4043V15.8281H71.6505C71.7507 17.2591 72.4252 17.9746 73.6739 17.9746C74.1752 17.9746 74.5762 17.8652 74.877 17.6465C75.1778 17.4186 75.3647 17.1133 75.4376 16.7305H76.8731C76.5723 18.3164 75.5014 19.1094 73.6602 19.1094C72.9584 19.1094 72.3523 18.9635 71.8419 18.6719C71.3315 18.3711 70.935 17.9518 70.6524 17.4141C70.379 16.8672 70.2423 16.2201 70.2423 15.4727ZM73.5919 12.9297C72.4617 12.9297 71.8191 13.5632 71.6641 14.8301H75.5059C75.4604 14.2559 75.2598 13.7956 74.9044 13.4492C74.558 13.1029 74.1205 12.9297 73.5919 12.9297Z" fill="#334155"/>
</svg>
