<svg width="46" height="59" viewBox="0 0 46 59" fill="none" xmlns="http://www.w3.org/2000/svg">
<path fill-rule="evenodd" clip-rule="evenodd" d="M8.39099 43.1439C8.39099 43.1439 5.78038 38.3351 7.76793 34.2381C9.48792 30.6915 11.7773 29.5927 12.9333 29.0729C14.0893 28.5531 32.169 22.1264 32.169 22.1264C32.169 22.1264 35.4955 20.8204 38.5811 22.4826C41.3499 23.9742 42.3974 25.4515 43.1229 27.737C45.0985 33.96 39.8412 37.4551 37.779 38.3347C36.3071 38.9627 32.2575 40.6502 32.2575 40.6502C32.2575 40.6502 31.6063 37.6681 27.7156 35.574C26.2427 34.7814 23.8513 34.1078 22.2831 33.9709C18.0522 33.602 13.0779 35.9058 10.9722 38.691C8.80796 41.5564 8.39099 43.1439 8.39099 43.1439Z" fill="#3A358C"/>
<path d="M21.0792 58.8985C27.2509 58.8985 32.254 53.8945 32.254 47.7217C32.254 41.5489 27.2509 36.5449 21.0792 36.5449C14.9075 36.5449 9.9043 41.5489 9.9043 47.7217C9.9043 53.8945 14.9075 58.8985 21.0792 58.8985Z" fill="#85BF4B"/>
<path fill-rule="evenodd" clip-rule="evenodd" d="M5.54651 35.122C5.54651 35.122 0.822071 22.1104 0.648454 21.051C0.474837 19.9915 -0.586994 12.7828 6.97152 10.0969C15.1157 7.20282 33.6886 0.567749 33.6886 0.567749C33.6886 0.567749 41.8278 -2.45934 44.9099 5.46593C47.3494 11.7393 41.4366 15.7074 41.4366 15.7074C40.7316 16.1364 39.9859 16.4944 39.2102 16.7762C38.4572 17.0506 11.6025 26.7506 11.6025 26.7506C9.24927 27.7444 7.15939 29.1151 5.93077 32.52C5.63996 33.3554 5.50959 34.2382 5.54651 35.122Z" fill="#50BFBF"/>
</svg>
