<svg width="14" height="15" viewBox="0 0 14 15" fill="none" xmlns="http://www.w3.org/2000/svg">
<g clip-path="url(#clip0_5050_23263)">
<path d="M11.0833 7.31543H2.91667C2.27233 7.31543 1.75 7.83776 1.75 8.4821V12.5654C1.75 13.2098 2.27233 13.7321 2.91667 13.7321H11.0833C11.7277 13.7321 12.25 13.2098 12.25 12.5654V8.4821C12.25 7.83776 11.7277 7.31543 11.0833 7.31543Z" stroke="#475569" stroke-linecap="round" stroke-linejoin="round"/>
<path d="M4.0835 7.31543V4.9821C4.0835 4.20855 4.39079 3.46668 4.93777 2.9197C5.48475 2.37272 6.22661 2.06543 7.00016 2.06543C7.77371 2.06543 8.51558 2.37272 9.06256 2.9197C9.60954 3.46668 9.91683 4.20855 9.91683 4.9821V7.31543" stroke="#475569" stroke-linecap="round" stroke-linejoin="round"/>
</g>
<defs>
<clipPath id="clip0_5050_23263">
<rect width="14" height="14" fill="white" transform="translate(0 0.898438)"/>
</clipPath>
</defs>
</svg>
