<svg width="15" height="15" viewBox="0 0 15 15"  xmlns="http://www.w3.org/2000/svg">
<mask id="mask0_5050_176961" style="mask-type:alpha" maskUnits="userSpaceOnUse" x="0" y="0" width="15" height="15">
<rect x="0.5" y="0.898438" width="14" height="14" />
</mask>
<g mask="url(#mask0_5050_176961)">
<path d="M7.93165 12.8571C7.80759 12.8571 7.70366 12.8152 7.61986 12.7314C7.53615 12.6477 7.4943 12.5437 7.4943 12.4196C7.4943 12.2954 7.53615 12.1915 7.61986 12.1078C7.70366 12.024 7.80759 11.9821 7.93165 11.9821H11.4037C11.4486 11.9821 11.4897 11.9634 11.527 11.926C11.5645 11.8886 11.5832 11.8475 11.5832 11.8026V3.99495C11.5832 3.95003 11.5645 3.90891 11.527 3.87158C11.4897 3.83414 11.4486 3.81543 11.4037 3.81543H7.93165C7.80759 3.81543 7.70366 3.77353 7.61986 3.68972C7.53615 3.60601 7.4943 3.50208 7.4943 3.37793C7.4943 3.25378 7.53615 3.14985 7.61986 3.06614C7.70366 2.98233 7.80759 2.94043 7.93165 2.94043H11.4037C11.6983 2.94043 11.9478 3.04251 12.1519 3.24668C12.3561 3.45085 12.4582 3.70027 12.4582 3.99495V11.8026C12.4582 12.0973 12.3561 12.3467 12.1519 12.5508C11.9478 12.755 11.6983 12.8571 11.4037 12.8571H7.93165ZM7.51778 8.33626H2.979C2.85485 8.33626 2.75092 8.29436 2.66721 8.21056C2.58341 8.12685 2.5415 8.02292 2.5415 7.89876C2.5415 7.77461 2.58341 7.67068 2.66721 7.58697C2.75092 7.50317 2.85485 7.46126 2.979 7.46126H7.51778L6.39602 6.33951C6.31523 6.25872 6.27391 6.16019 6.27207 6.04391C6.27022 5.92763 6.31154 5.82423 6.39602 5.73372C6.48051 5.64321 6.58298 5.59644 6.70344 5.59343C6.8238 5.59051 6.92924 5.63426 7.01975 5.72468L8.82473 7.52966C8.93012 7.63515 8.98282 7.75818 8.98282 7.89876C8.98282 8.03935 8.93012 8.16238 8.82473 8.26787L7.01975 10.0728C6.93303 10.1596 6.83003 10.2023 6.71073 10.2012C6.59144 10.2001 6.48654 10.1543 6.39602 10.0638C6.31154 9.97329 6.2708 9.86936 6.27382 9.75201C6.27673 9.63457 6.32048 9.5336 6.40507 9.44912L7.51778 8.33626Z" />
</g>
</svg>
