<svg width="20" height="20" viewBox="0 0 20 20" fill="none" xmlns="http://www.w3.org/2000/svg">
<mask id="mask0_4833_241598" style="mask-type:alpha" maskUnits="userSpaceOnUse" x="2" y="2" width="16" height="16">
<rect x="2" y="2" width="16" height="16" fill="#D9D9D9"/>
</mask>
<g mask="url(#mask0_4833_241598)">
<path d="M5.5372 15.6673C5.20042 15.6673 4.91536 15.5507 4.68203 15.3173C4.4487 15.084 4.33203 14.7989 4.33203 14.4622V5.53915C4.33203 5.20237 4.4487 4.91732 4.68203 4.68398C4.91536 4.45065 5.20042 4.33398 5.5372 4.33398H9.5052C9.64698 4.33398 9.76575 4.38187 9.86153 4.47765C9.9572 4.57332 10.005 4.6921 10.005 4.83398C10.005 4.97587 9.9572 5.09465 9.86153 5.19032C9.76575 5.2861 9.64698 5.33398 9.5052 5.33398H5.5372C5.48586 5.33398 5.43886 5.35537 5.3962 5.39815C5.35342 5.44082 5.33203 5.48782 5.33203 5.53915V14.4622C5.33203 14.5135 5.35342 14.5605 5.3962 14.6032C5.43886 14.6459 5.48586 14.6673 5.5372 14.6673H9.5052C9.64698 14.6673 9.76575 14.7152 9.86153 14.811C9.9572 14.9067 10.005 15.0254 10.005 15.1673C10.005 15.3092 9.9572 15.428 9.86153 15.5237C9.76575 15.6194 9.64698 15.6673 9.5052 15.6673H5.5372ZM13.7435 10.5007H8.56287C8.42098 10.5007 8.30214 10.4528 8.20636 10.357C8.1107 10.2613 8.06287 10.1425 8.06287 10.0007C8.06287 9.85876 8.1107 9.73998 8.20636 9.64432C8.30214 9.54854 8.42098 9.50065 8.56287 9.50065H13.7435L12.4615 8.21865C12.3692 8.12632 12.322 8.01371 12.3199 7.88082C12.3178 7.74793 12.365 7.62976 12.4615 7.52632C12.5581 7.42287 12.6752 7.36943 12.8129 7.36598C12.9504 7.36265 13.0709 7.41265 13.1744 7.51598L15.2372 9.57882C15.3576 9.69937 15.4179 9.83998 15.4179 10.0007C15.4179 10.1613 15.3576 10.3019 15.2372 10.4225L13.1744 12.4853C13.0753 12.5844 12.9575 12.6333 12.8212 12.632C12.6849 12.6308 12.565 12.5784 12.4615 12.475C12.365 12.3715 12.3184 12.2528 12.3219 12.1187C12.3252 11.9844 12.3752 11.869 12.4719 11.7725L13.7435 10.5007Z" fill="#64748B"/>
</g>
</svg>
