<svg width="21" height="20" viewBox="0 0 21 20" fill="none" xmlns="http://www.w3.org/2000/svg">
<mask id="mask0_5427_48244" style="mask-type:alpha" maskUnits="userSpaceOnUse" x="2" y="2" width="17" height="16">
<rect x="2.6001" y="2" width="16" height="16" fill="#D9D9D9"/>
</mask>
<g mask="url(#mask0_5427_48244)">
<path d="M5.93359 14.6666H6.77459L13.5989 7.84225L12.7579 7.00125L5.93359 13.8256V14.6666ZM5.53626 15.6666C5.36548 15.6666 5.22237 15.6088 5.10693 15.4933C4.99137 15.3778 4.93359 15.2347 4.93359 15.0639V13.9089C4.93359 13.7464 4.96482 13.5914 5.02726 13.4441C5.08959 13.2968 5.17548 13.1684 5.28493 13.0589L13.7273 4.62042C13.828 4.52886 13.9393 4.45814 14.0611 4.40825C14.183 4.35825 14.3108 4.33325 14.4444 4.33325C14.5781 4.33325 14.7075 4.35697 14.8328 4.40442C14.9581 4.45186 15.069 4.52731 15.1656 4.63075L15.9798 5.45509C16.0832 5.55164 16.1569 5.66275 16.2009 5.78842C16.2449 5.91409 16.2669 6.03975 16.2669 6.16542C16.2669 6.29953 16.244 6.42747 16.1983 6.54925C16.1525 6.67114 16.0796 6.78247 15.9798 6.88325L7.54126 15.3153C7.43182 15.4247 7.30343 15.5106 7.15609 15.5729C7.00876 15.6354 6.85382 15.6666 6.69126 15.6666H5.53626ZM13.1711 7.42909L12.7579 7.00125L13.5989 7.84225L13.1711 7.42909Z" fill="#64748B"/>
</g>
</svg>
