<svg width="18" height="18" viewBox="0 0 18 18"  xmlns="http://www.w3.org/2000/svg">
<mask id="mask0_5090_250163" style="mask-type:alpha" maskUnits="userSpaceOnUse" x="0" y="0" width="18" height="18">
<rect x="0.633301" y="0.532227" width="16.7332" height="16.7332" />
</mask>
<g mask="url(#mask0_5090_250163)">
<path d="M3.41569 13.9939C3.12158 13.9939 2.87151 13.8909 2.66549 13.6848C2.45946 13.4787 2.35645 13.2286 2.35645 12.9346V12.4438C2.35645 12.0738 2.44964 11.7505 2.63603 11.4738C2.8223 11.1971 3.06964 10.9806 3.37804 10.8242C3.97068 10.522 4.59637 10.2776 5.25512 10.0909C5.91399 9.90401 6.69081 9.81058 7.58557 9.81058C7.6919 9.81058 7.80653 9.81238 7.92947 9.81598C8.0523 9.81947 8.16693 9.82929 8.27337 9.84544C8.41015 9.86415 8.52501 9.9312 8.61797 10.0466C8.71094 10.1619 8.74801 10.2886 8.72918 10.4269C8.71047 10.5479 8.65638 10.6531 8.5669 10.7424C8.47754 10.8318 8.35646 10.8742 8.20365 10.8698C8.12498 10.8653 8.02865 10.8619 7.91466 10.8597C7.80066 10.8575 7.69097 10.8564 7.58557 10.8564C6.76053 10.8564 6.03758 10.9484 5.4167 11.1325C4.79595 11.3167 4.27641 11.525 3.85808 11.7574C3.69981 11.8423 3.5843 11.9416 3.51156 12.0551C3.4387 12.1686 3.40227 12.2982 3.40227 12.4438V12.9481H8.20226C8.35042 12.9481 8.47464 12.9982 8.57492 13.0985C8.67509 13.1986 8.72517 13.3229 8.72517 13.4711C8.72517 13.6194 8.67509 13.7436 8.57492 13.8436C8.47464 13.9438 8.35042 13.9939 8.20226 13.9939H3.41569ZM11.388 13.0446L14.5415 9.89094C14.6381 9.79449 14.7595 9.7451 14.9056 9.74278C15.0517 9.74057 15.1753 9.78996 15.2764 9.89094C15.3774 9.99203 15.4279 10.1145 15.4279 10.2584C15.4279 10.4022 15.3774 10.5247 15.2764 10.6258L11.8292 14.073C11.7031 14.199 11.556 14.262 11.388 14.262C11.22 14.262 11.0729 14.199 10.9469 14.073L9.59129 12.7175C9.49484 12.6209 9.44545 12.4995 9.44313 12.3533C9.44092 12.2073 9.49031 12.0837 9.59129 11.9826C9.69239 11.8816 9.81486 11.8311 9.95872 11.8311C10.1026 11.8311 10.2251 11.8816 10.3262 11.9826L11.388 13.0446ZM7.58557 8.68423C6.9145 8.68423 6.33999 8.44531 5.86205 7.96749C5.38422 7.48955 5.14531 6.91504 5.14531 6.24397C5.14531 5.5729 5.38422 4.99845 5.86205 4.52062C6.33999 4.04268 6.9145 3.80371 7.58557 3.80371C8.25664 3.80371 8.83109 4.04268 9.30892 4.52062C9.78674 4.99845 10.0257 5.5729 10.0257 6.24397C10.0257 6.91504 9.78674 7.48955 9.30892 7.96749C8.83109 8.44531 8.25664 8.68423 7.58557 8.68423ZM7.58557 7.6384C7.96904 7.6384 8.29731 7.50186 8.57039 7.22879C8.84347 6.95571 8.98 6.62744 8.98 6.24397C8.98 5.8605 8.84347 5.53223 8.57039 5.25915C8.29731 4.98607 7.96904 4.84954 7.58557 4.84954C7.2021 4.84954 6.87383 4.98607 6.60075 5.25915C6.32768 5.53223 6.19114 5.8605 6.19114 6.24397C6.19114 6.62744 6.32768 6.95571 6.60075 7.22879C6.87383 7.50186 7.2021 7.6384 7.58557 7.6384Z" />
</g>
</svg>
