<svg width="10" height="14" viewBox="0 0 10 14" fill="none" xmlns="http://www.w3.org/2000/svg">
<path d="M0.5 11.589C0.358333 11.589 0.239611 11.5411 0.143833 11.4454C0.0479445 11.3495 0 11.2306 0 11.0889C0 10.9472 0.0479445 10.8285 0.143833 10.7327C0.239611 10.637 0.358333 10.5892 0.5 10.5892H1.20517V5.61468C1.20517 4.71813 1.48189 3.9254 2.03533 3.23652C2.58867 2.54763 3.29911 2.10702 4.16667 1.91468V1.49935C4.16667 1.2679 4.24761 1.07113 4.4095 0.909016C4.57139 0.747016 4.76794 0.666016 4.99917 0.666016C5.2305 0.666016 5.42733 0.747016 5.58967 0.909016C5.75211 1.07113 5.83333 1.2679 5.83333 1.49935V1.91468C6.70089 2.10702 7.41133 2.54763 7.96467 3.23652C8.51811 3.9254 8.79483 4.71813 8.79483 5.61468V10.5892H9.5C9.64167 10.5892 9.76039 10.6371 9.85617 10.7329C9.95206 10.8287 10 10.9476 10 11.0894C10 11.231 9.95206 11.3497 9.85617 11.4455C9.76039 11.5412 9.64167 11.589 9.5 11.589H0.5ZM4.99883 13.4608C4.66717 13.4608 4.38361 13.3428 4.14817 13.1068C3.91261 12.8708 3.79483 12.5871 3.79483 12.2557H6.20517C6.20517 12.5882 6.08706 12.8722 5.85083 13.1077C5.61461 13.3431 5.33061 13.4608 4.99883 13.4608ZM2.20517 10.5892H7.79483V5.61468C7.79483 4.8429 7.522 4.18418 6.97633 3.63852C6.43056 3.09274 5.77178 2.81985 5 2.81985C4.22822 2.81985 3.56944 3.09274 3.02367 3.63852C2.478 4.18418 2.20517 4.8429 2.20517 5.61468V10.5892Z" fill="#64748B"/>
</svg>
